<?xml version="1.0" standalone="no"?>
<!DOCTYPE svg PUBLIC "-//W3C//DTD SVG 1.1//EN" "http://www.w3.org/Graphics/SVG/1.1/DTD/svg11.dtd" >
<svg xmlns="http://www.w3.org/2000/svg" xmlns:xlink="http://www.w3.org/1999/xlink" version="1.1">
<metadata></metadata>
<defs>
<font id="chilankaregular" horiz-adv-x="1370" >
<font-face units-per-em="2048" ascent="1638" descent="-410" />
<missing-glyph horiz-adv-x="560" />
<glyph horiz-adv-x="0" />
<glyph unicode="&#xd;" horiz-adv-x="600" />
<glyph unicode=" "  horiz-adv-x="560" />
<glyph unicode="&#x09;" horiz-adv-x="560" />
<glyph unicode="&#xa0;" horiz-adv-x="560" />
<glyph unicode="!" horiz-adv-x="409" d="M96 640q0 213 32 523q3 27 23 46.5t45 19.5t42 -18t21 -40q38 -250 38 -527q0 -103 -5 -210q-1 -8 -1 -19q0 -10 0.5 -19.5t0.5 -20.5q0 -50 -20 -86t-68 -36q-58 0 -78.5 43.5t-20.5 114.5v31q-9 85 -9 198zM101 -99q0 32 11.5 76.5t33.5 78.5t54 34q41 0 60 -32 q55 -92 55 -165q0 -49 -25.5 -87t-76.5 -38q-18 0 -35 7q-77 31 -77 126z" />
<glyph unicode="&#x22;" horiz-adv-x="526" d="M76 1208q0 40 9.5 82t30 70.5t53.5 28.5q21 0 46 -14q60 -33 60 -144q0 -93 -41 -238q-6 -20 -22.5 -33t-40.5 -13q-29 0 -44 14.5t-22 44.5q-29 118 -29 202zM322 1202q0 40 9.5 82t30 70.5t53.5 28.5q21 0 46 -14q60 -33 60 -144q0 -93 -41 -238q-6 -20 -22.5 -33 t-40.5 -13q-29 0 -44 14.5t-22 44.5q-29 118 -29 202z" />
<glyph unicode="#" horiz-adv-x="1590" d="M100 377q0 26 19.5 45.5t45.5 19.5h257l144 401h-254q-26 0 -45.5 19.5t-19.5 45.5t19.5 45.5t45.5 19.5h301l107 299q18 48 48 48q8 0 17 -3q62 -22 62 -64q0 -11 -5 -25l-91 -255h398l110 298q18 48 49 48q8 0 17 -3q61 -22 61 -64q0 -12 -5 -26l-93 -253h137 q26 0 45.5 -19.5t19.5 -45.5t-19.5 -45.5t-45.5 -19.5h-185l-148 -401h306q26 0 45.5 -19.5t19.5 -45.5t-19.5 -45.5t-45.5 -19.5h-354l-115 -313q-18 -48 -49 -48q-8 0 -17 3q-61 22 -61 64q0 12 5 26l98 268h-392l-106 -296q-18 -49 -50 -49q-7 0 -16 3q-62 22 -62 64 q0 12 5 26l91 252h-210q-26 0 -45.5 19.5t-19.5 45.5zM560 442h393l148 401h-397z" />
<glyph unicode="$" horiz-adv-x="1316" d="M100 1019q0 47 18 95q33 89 115.5 141t205.5 52q42 0 88 -7q0 47 8 85.5t57 38.5q26 0 45.5 -19.5t19.5 -45.5v-88q197 -58 363 -184q30 -22 30 -49q0 -24 -22 -48t-44 -24q-19 0 -42 17q-66 50 -137.5 88.5t-148.5 63.5q-1 -85 -1 -170.5t-1 -171.5q2 0 16.5 -1t40.5 -3 q406 -23 488 -300q18 -60 18 -120q0 -108 -59 -214q-113 -204 -346 -270q-79 -22 -162 -22l-1 -144q0 -29 -20.5 -46.5t-45.5 -17.5q-26 0 -45 19q-18 18 -18 178v26q-135 32 -242.5 125.5t-158.5 214.5q-8 18 -8 33q0 23 23 41.5t52 18.5q35 0 53 -42q82 -194 281 -256 q1 165 2 329.5t2 329.5q-194 21 -286 99q-138 118 -138 248zM227 1032q0 -17 6 -35q25 -73 85 -124q61 -52 206 -70l2 366q-48 9 -89 9q-51 0 -99 -18.5t-79.5 -51t-31.5 -76.5zM650 -7q186 0 315 122q122 116 122 248q0 43 -13 89q-48 164 -276 198q-28 5 -73 8.5t-71 4.5 q-1 -167 -2 -335t-2 -335z" />
<glyph unicode="%" horiz-adv-x="1237" d="M100 948q0 174 236 353q20 15 42 15q45 0 60 -50q19 14 38 14q64 0 121 -165l345 165q22 11 39 11q25 0 38.5 -24t13.5 -49q0 -17 -8 -31l-561 -905l205 159q22 16 42 16q24 0 47 -25q6 2 16 2q29 0 83 -18q208 -70 261 -198q19 -47 19 -88q0 -71 -57 -124 q-46 -43 -112.5 -69.5t-133.5 -26.5q-52 0 -99.5 18.5t-81.5 60.5q-60 74 -60 181q0 24 3 50l-337 -261q-18 -13 -38 -13q-24 0 -48 16.5t-24 39.5q0 18 15 42l634 1023l-146 -70q-9 -4 -18 -7.5t-17 -6.5q-7 -100 -66 -150q-95 -79 -198 -79q-66 0 -135 33 q-118 57 -118 161zM224 971q0 -37 41.5 -61t82.5 -24q17 0 34 4q101 27 105 105q-75 51 -77 199q-186 -144 -186 -223zM719 161q0 -60 37.5 -91t87.5 -31q43 0 76.5 13.5t56.5 35.5q32 30 32 55q0 9 -4 18q-39 80 -242 149q-3 1 -6 3t-6 3q-32 -96 -32 -155z" />
<glyph unicode="&#x26;" horiz-adv-x="1289" d="M100 1039q0 144 91 217t229 73q100 0 191 -37t148.5 -106t57.5 -164q0 -148 -178 -298q-29 -25 -58 -50.5t-57 -51.5l63 -42t104 -69q62 -40 114 -79t95 -75q115 106 162 233q16 45 53 45q31 0 53 -18t22 -42q0 -14 -6 -30q-55 -152 -190 -278q98 -107 98 -148 q0 -21 -14.5 -38t-33.5 -29q-12 -7 -23 -7q-26 0 -49 37q-31 51 -79 102q-177 -128 -376 -167q-56 -11 -105 -11q-108 0 -188 57.5t-80 168.5q0 86 39 173.5t85 137.5q29 31 43.5 47t15.5 17q-151 130 -188 235q-39 110 -39 197zM230 1038q0 -122 61 -202q58 -75 128 -135 q33 32 67.5 62.5t69.5 60.5q134 112 134 190q0 10 -2 20q-18 73 -94.5 119t-169.5 46t-143.5 -41t-50.5 -120zM271 239q0 -54 38.5 -78t100.5 -24q42 0 94 10q145 28 292 128q-79 64 -196 140q-119 77 -169 113q-107 -114 -144 -214q-16 -43 -16 -75z" />
<glyph unicode="'" horiz-adv-x="368" d="M76 1208q0 40 9.5 82t30 70.5t53.5 28.5q21 0 46 -14q60 -33 60 -144q0 -93 -41 -238q-6 -20 -22 -33t-40 -13q-52 0 -67 59q-29 118 -29 202z" />
<glyph unicode="(" horiz-adv-x="721" d="M100 537q0 340 251 672q131 174 165 176q30 3 53 -16t23 -44q0 -28 -30 -63q-230 -263 -298 -493q-39 -133 -39 -247q0 -82 20 -154q91 -328 356 -619q21 -23 21 -45q0 -23 -23.5 -45.5t-46.5 -22.5q-24 0 -47 25q-405 444 -405 876z" />
<glyph unicode=")" horiz-adv-x="721" d="M100 -296q0 22 21 45q265 291 356 619q20 72 20 154q0 114 -39 247q-68 230 -298 493q-30 35 -30 63q0 26 23 44.5t53 15.5q34 -2 165 -176q251 -332 251 -672q0 -432 -405 -876q-23 -25 -47 -25q-23 0 -46.5 22.5t-23.5 45.5z" />
<glyph unicode="*" horiz-adv-x="1182" d="M93 1098q0 26 25 49t60 11l346 -115v310q0 31 19.5 52t48.5 21q27 0 46 -19t19 -46v-310l346 115q10 3 20 3q27 0 46.5 -18.5t19.5 -44.5q0 -23 -13.5 -40.5t-31.5 -22.5l-353 -118l235 -234q19 -19 19 -46t-18.5 -46t-46.5 -19q-27 0 -46 19l-242 242l-242 -242 q-19 -19 -46 -19t-46 18.5t-19 45.5q0 28 19 47l228 228l-349 116q-21 7 -32.5 25t-11.5 38z" />
<glyph unicode="+" horiz-adv-x="1408" d="M100 636q0 26 19.5 45.5t45.5 19.5h510v503q0 26 19.5 45.5t45.5 19.5t45.5 -19.5t19.5 -45.5v-503h438q26 0 45.5 -19.5t19.5 -45.5t-19.5 -45.5t-45.5 -19.5h-438v-579q0 -26 -19.5 -45.5t-45.5 -19.5t-45.5 19.5t-19.5 45.5v579h-510q-26 0 -45.5 19.5t-19.5 45.5z " />
<glyph unicode="," horiz-adv-x="445" d="M100 3q0 46 19 81t49 57q25 18 55 18q68 0 94 -49t26 -113q0 -56 -13 -117t-31 -111.5t-32 -77.5q-25 -48 -33 -55q-18 -30 -57 -30q-29 0 -51 25t-7 66q19 55 19 93q0 12 -2 22q-7 41 -13 71.5t-12 49.5q-11 36 -11 70z" />
<glyph unicode="-" horiz-adv-x="783" d="M107 490q0 27 19 46t46 19h441q27 0 46 -19t19 -46t-19 -46t-46 -19h-441q-27 0 -46 19t-19 46z" />
<glyph unicode="." horiz-adv-x="422" d="M101 102q0 24 6 49q4 18 18 45.5t34 48.5t42 21q31 0 58.5 -30.5t44.5 -72.5t17 -77q0 -43 -30.5 -75t-78.5 -32q-55 0 -83 36t-28 87z" />
<glyph unicode="/" horiz-adv-x="1039" d="M100 -112q0 14 7 28l708 1451q18 36 57 36q26 0 47 -17t21 -44q0 -15 -7 -30l-709 -1452q-7 -15 -22.5 -26t-35.5 -11q-27 0 -46.5 19t-19.5 46z" />
<glyph unicode="0" horiz-adv-x="1144" d="M100 705q0 143 29.5 259t84.5 187q149 199 355 199q46 0 84.5 -14t38.5 -60q0 -29 -36 -51q182 -33 296 -271q96 -200 96 -389q0 -123 -29.5 -227.5t-71.5 -154.5q-138 -165 -341 -165q-288 0 -428 307q-78 173 -78 380zM230 702q0 -174 66 -320q106 -235 306 -235 q204 0 277 186q38 98 38 210q0 100 -30 212q-65 240 -195 319q-39 24 -70 25q-68 4 -68 63q0 38 31 58q-11 1 -22 1q-88 0 -151 -45t-103 -119.5t-59.5 -167t-19.5 -187.5z" />
<glyph unicode="1" horiz-adv-x="476" d="M100 1306q0 34 25.5 51t54.5 17q56 0 94 -35q53 -49 69 -128t23 -181q10 -139 10 -279q0 -185 -18 -372l-32 -327q-3 -28 -22.5 -42t-42.5 -14q-24 0 -44.5 15.5t-20.5 45.5v7l32 328q18 186 18 365q0 65 -2.5 150.5t-10.5 163.5t-25 121q-21 53 -26 51q-9 -3 -18 -3 q-27 0 -45.5 20t-18.5 46z" />
<glyph unicode="2" horiz-adv-x="1331" d="M96 1079q0 21 19 44q199 235 399 251q26 2 51 2q164 0 269 -94q67 -60 100 -128t33 -159q0 -117 -61 -216q-161 -261 -467 -594q76 15 165 15q58 0 131.5 -8.5t145.5 -17.5t126 -9q70 0 111 14q29 10 51 10q29 0 46.5 -18.5t17.5 -49.5q0 -41 -50 -57q-99 -32 -183 -32 q-22 0 -43 2q-99 10 -283 39q-39 6 -79 6q-150 0 -325 -82q-44 -22 -73 -22q-27 0 -42.5 24.5t-15.5 41.5q0 23 22 44l42 41q358 351 595 723q40 68 40 141q0 113 -89 194q-68 62 -185 62q-19 0 -40 -2q-145 -12 -310 -205q-22 -26 -48 -26q-23 0 -46.5 22t-23.5 44z" />
<glyph unicode="3" horiz-adv-x="1181" d="M101 248q0 33 30.5 56t66.5 1q332 -192 539 -192q100 0 157 45t57 136q0 67 -36 124.5t-80 83.5q-48 29 -104 29q-60 0 -128 -32q-15 -7 -29 -7q-27 0 -45 21t-18 47q0 33 28 52q70 45 128 100q151 142 176 296q4 26 4 50q0 85 -49 137.5t-135 52.5q-11 0 -23 -1 q-182 -17 -401 -227q-19 -18 -46 -18q-29 0 -46 20.5t-17 45.5q0 27 19 46q252 243 480 263q20 2 39 2q148 0 234 -104q75 -91 75 -215q0 -36 -6 -75q-29 -174 -176 -329q102 -19 169.5 -89t98.5 -163q19 -60 19 -115q0 -75 -35 -143q-84 -162 -310 -162q-243 0 -605 209 q-31 18 -31 55z" />
<glyph unicode="4" horiz-adv-x="1496" d="M97 643q0 37 15.5 69.5t39.5 60.5q78 91 125 146t77.5 92t57 73.5t63 90t97.5 142.5q25 37 50 37q12 0 24 -8q46 -31 46 -65q0 -18 -12 -36q-60 -89 -97 -143.5t-67.5 -95t-69 -86.5t-100.5 -119q-103 -122 -106 -126q37 -7 91 -7q72 0 170 13q89 12 136.5 18t54.5 7v333 q0 26 20 45.5t46 19.5t45 -19.5t19 -45.5v-316q251 31 369 31q66 0 91 -10q114 -45 114 -122q0 -26 -19 -46t-45 -20q-52 0 -64 52q-27 12 -102 12q-113 0 -344 -28v-503q0 -26 -19 -45.5t-45 -19.5t-46 19.5t-20 45.5v486q-4 -1 -47 -6.5t-126 -16.5q-126 -16 -192 -16 q-23 0 -40 2q-73 9 -131.5 28t-58.5 77z" />
<glyph unicode="5" horiz-adv-x="1306" d="M99 1052q0 43 4.5 94.5t12 95t16.5 62.5q16 36 58 62q46 28 182 28q61 0 141 -4.5t156.5 -9t127.5 -4.5q94 0 177 12t146 33q13 5 25 5q28 0 44.5 -21.5t16.5 -47.5q0 -18 -10 -34.5t-33 -23.5q-155 -53 -368 -53q-92 0 -167 6t-178 13q-46 3 -83 3q-78 0 -112 -15 q-5 -9 -11 -52t-11 -96t-5 -91q0 -108 18 -251q275 120 475 120q179 0 287.5 -88.5t108.5 -260.5q0 -92 -43 -189q-42 -93 -119 -171.5t-183 -126t-235 -47.5q-108 0 -202 28.5t-175 69.5q-34 17 -34 59q0 30 28 53t65 4q169 -86 315 -86q99 0 182.5 36.5t144.5 97t92 131.5 q34 76 34 144q0 106 -74 161.5t-194 55.5q-195 0 -495 -144q-14 -7 -29 -7q-25 0 -42 16.5t-21 35.5q-8 40 -15.5 107t-12.5 144t-5 146z" />
<glyph unicode="6" horiz-adv-x="1177" d="M96 497q0 57 12 116q77 366 288 577q150 150 221 150q24 0 41 -19.5t17 -43.5q0 -32 -40 -56q-199 -123 -330 -404q-37 -81 -55.5 -150.5t-18.5 -140.5q0 -370 375 -370q220 0 288 87q51 64 51 133q0 51 -28.5 99t-77 79.5t-107.5 31.5q-76 0 -148.5 -39t-111.5 -77 q-44 -42 -78 -42q-24 0 -43.5 21.5t-19.5 42.5q0 24 24 47q123 117 278 165q54 17 104 17q94 0 171 -53t122.5 -133t45.5 -161q0 -52 -19 -106t-60 -106q-107 -136 -389 -136q-365 0 -476 282q-36 91 -36 189z" />
<glyph unicode="7" horiz-adv-x="1200" d="M99 1231q0 18 9.5 34t31.5 24q375 141 594 141q184 0 274 -98t90 -284q0 -63 -10 -137q-18 -129 -94 -421q-77 -296 -90 -425q-3 -26 -23 -42t-44 -16q-26 0 -45.5 21t-16.5 49q13 139 90 436q38 149 61.5 248.5t30.5 151.5q11 78 11 140q0 136 -53 189.5t-191 53.5 q-27 0 -57 -2q-176 -12 -481 -127q-13 -5 -25 -5q-28 0 -45 21.5t-17 47.5z" />
<glyph unicode="8" horiz-adv-x="1189" d="M99 1055q0 91 59 150.5t151.5 89t193.5 29.5q178 0 268 -48q142 -77 142 -178q0 -36 -16 -68.5t-48 -32.5q-30 0 -53.5 17t-23.5 37q0 8 3 17.5t3 18.5q0 38 -60 70q-67 36 -227 36q-123 0 -191.5 -34t-68.5 -104q0 -74 76 -172q55 -44 110.5 -82.5t110.5 -71.5 q62 47 201 144q142 99 189 149q26 28 52 28q22 0 44.5 -21.5t22.5 -44.5q0 -26 -29 -56q-55 -58 -186 -149q-66 -46 -107.5 -75t-58.5 -42q11 -5 44 -20.5t87 -39.5q107 -47 180 -130q72 -81 105 -147q19 -37 19 -79q0 -29 -10 -61q-22 -73 -121 -134q-101 -63 -314 -63 q-197 0 -302 56q-171 92 -171 224q0 158 247 375q-176 112 -214 159q-46 58 -76.5 123.5t-30.5 129.5zM307 269q0 -57 81 -101q95 -51 257 -51q174 0 243 42q35 22 55 37.5t20 34.5q0 22 -22 59q-74 129 -200 190q-46 23 -98.5 46t-102.5 48q-197 -161 -230 -282 q-3 -12 -3 -23z" />
<glyph unicode="9" horiz-adv-x="1114" d="M103 920q0 154 72.5 259.5t186.5 155.5q93 40 202 40q184 0 414 -113q36 -18 36 -57q0 -25 -17 -46t-45 -21q-15 0 -31 7q-203 100 -356 100q-117 0 -195.5 -52t-111.5 -137q-28 -72 -28 -136q0 -34 8 -67q18 -66 51.5 -97t78.5 -31q79 0 189 85t236 255q19 25 51 25 q22 0 41 -13.5t24 -36.5q32 -145 32 -371q0 -265 -44 -640q-3 -28 -22.5 -41.5t-41.5 -13.5q-25 0 -46 15.5t-21 45.5q0 4 1 9q42 358 42 620q0 110 -7 204q-51 -58 -120.5 -121.5t-149 -107t-162.5 -43.5q-88 0 -147.5 46t-89.5 120t-30 158z" />
<glyph unicode=":" horiz-adv-x="462" d="M103 183q0 22 8 46q9 27 41 66t70 39q33 0 65 -26t53.5 -64t21.5 -73q0 -44 -39 -70.5t-89 -26.5q-57 0 -94 29.5t-37 79.5zM111 865q0 22 8 46q9 27 41 66t70 39q33 0 65 -26t53.5 -64t21.5 -73q0 -44 -39 -70.5t-89 -26.5q-57 0 -94 29.5t-37 79.5z" />
<glyph unicode=";" horiz-adv-x="425" d="M114 275q0 45 19 80t49 57q26 19 56 19q68 0 93.5 -49.5t25.5 -112.5q0 -56 -13 -117t-31 -111.5t-32 -77.5q-25 -48 -33 -55q-18 -31 -58 -31q-29 0 -50.5 25.5t-6.5 66.5q19 55 19 93q0 12 -2 22q-7 41 -13 71.5t-12 49.5q-11 36 -11 70zM116 700q0 25 6 50 q4 18 18 45.5t33.5 49t42.5 21.5q30 0 57.5 -30.5t44.5 -72.5t17 -77q0 -43 -31 -75.5t-78 -32.5q-55 0 -82.5 35.5t-27.5 86.5z" />
<glyph unicode="&#x3c;" horiz-adv-x="1250" d="M99 487q0 23 10 47q19 44 57.5 68.5t81.5 46.5q94 47 455 183q224 84 357 135q14 5 26 5q28 0 44.5 -20.5t16.5 -45.5q0 -19 -10 -35.5t-31 -24.5q-45 -17 -132 -50.5t-191.5 -73.5t-204.5 -79t-174 -68.5t-97 -41.5q-44 -21 -69 -43q23 -19 82 -47q50 -23 178 -71 t326 -117q90 -31 161 -56t123 -43q20 -7 31 -25t11 -38q0 -27 -25 -50t-61 -10q-52 18 -124.5 44t-162.5 57q-157 55 -258.5 91t-171 64t-130.5 59q-36 19 -77 53.5t-41 85.5z" />
<glyph unicode="=" horiz-adv-x="866" d="M100 408q0 29 23.5 47t52.5 18h514q29 0 52.5 -18t23.5 -47q0 -28 -23.5 -46.5t-52.5 -18.5h-514q-29 0 -52.5 18.5t-23.5 46.5zM104 819q0 28 23.5 45.5t51.5 17.5h512q29 0 52 -17.5t23 -45.5t-23 -45t-52 -17h-512q-28 0 -51.5 17t-23.5 45z" />
<glyph unicode="&#x3e;" horiz-adv-x="1250" d="M101 93q0 20 11 38t31 25q52 18 122.5 43t160.5 56q198 69 326 117t178 71q29 14 49.5 25.5t33.5 21.5q-25 22 -69 43q-91 46 -442 177q-112 42 -201.5 76.5t-156.5 59.5q-21 8 -30.5 24.5t-9.5 34.5q0 25 16.5 46t43.5 21q13 0 27 -5q134 -51 357 -135 q361 -136 455 -183q43 -22 81.5 -46.5t57.5 -68.5q10 -24 10 -47q0 -51 -41 -85.5t-77 -53.5q-61 -31 -130.5 -59t-171.5 -64t-259 -91q-90 -31 -162 -57t-124 -44q-36 -13 -61 10t-25 50z" />
<glyph unicode="?" horiz-adv-x="984" d="M100 1129q0 129 84 203t207 74q82 0 183 -32q270 -87 306 -232q4 -17 4 -34q0 -119 -197 -281q-98 -80 -140 -142q-41 -60 -41 -135q0 -52 19.5 -103.5t51.5 -93.5q14 -18 14 -38q0 -27 -22 -46.5t-48 -19.5q-29 0 -48 25q-96 127 -96 283q0 107 73 217q40 59 141 142 q99 81 150 151q22 25 17 47q-7 30 -50 57.5t-94.5 49t-84.5 31.5q-76 25 -135 25q-71 0 -117.5 -36t-46.5 -112q0 -36 10 -81q2 -8 2 -15q0 -29 -21.5 -45.5t-46.5 -16.5q-21 0 -39 12t-23 38q-12 58 -12 108zM412 2q0 50 29.5 91.5t76.5 41.5t76 -41.5t29 -91.5 q0 -49 -29 -91t-76 -42t-76.5 42t-29.5 91z" />
<glyph unicode="@" horiz-adv-x="1555" d="M100 326q0 40 6 71q27 181 106.5 316.5t213 210.5t322.5 75q119 0 255 -31q306 -71 408 -334q45 -115 45 -232q0 -92 -28 -185q-15 -52 -52.5 -113t-92 -104.5t-122.5 -43.5q-77 0 -125.5 46t-73.5 109q-86 -131 -198 -147q-28 -4 -56 -4q-147 0 -228 88t-81 237 q0 103 44 184t108 131q82 64 208 64q121 0 182.5 -44t102.5 -134q18 -40 18 -87q0 -38 -5.5 -56.5t-2.5 -69.5q2 -30 13 -67.5t28 -68.5t36 -43q9 -8 23 -8q24 0 62 29q53 39 80 118t27 167q0 102 -33 187q-78 200 -333 258q-116 26 -214 26q-330 0 -456 -299 q-20 -49 -32 -103t-25 -113q-2 -7 -2 -21q0 -130 41.5 -233t113.5 -180q132 -141 359 -141q16 0 33 1t34 1q30 0 45.5 -20.5t15.5 -45.5q0 -23 -14 -42.5t-44 -21.5q-34 -3 -66 -3q-152 0 -267 51t-191 132q-160 172 -184 422q-4 39 -4 71zM530 280q0 -55 18 -100t52 -62 q69 -31 115 -31q9 0 17 1q112 17 193 250q6 16 6 57q0 31 -17 61t-31 46t-48 24t-70 8q-113 0 -174 -70.5t-61 -183.5z" />
<glyph unicode="A" d="M100 24q36 483 155 869q119 384 284 509q68 51 132 51q182 0 341 -402q139 -353 242 -926l16 -88q1 -6 1 -11q0 -30 -21.5 -46.5t-46.5 -16.5q-21 0 -39 12.5t-23 39.5l-15 87q-23 129 -48 246.5t-52 223.5h-717q-59 -292 -79 -552q-2 -26 -22 -42.5t-45 -16.5 q-23 0 -44 19.5t-19 43.5zM338 702h654q-112 399 -232 550q-28 36 -56 52q-26 14 -38 13q-64 -8 -126 -101q-120 -180 -202 -514z" />
<glyph unicode="B" horiz-adv-x="1155" d="M100 1373q0 26 18 44.5t41 20.5q66 6 132 6q148 0 282 -32.5t233 -98t142 -164.5q23 -54 23 -106q0 -79 -46 -141t-115.5 -105.5t-138.5 -68.5q93 -29 181 -81t145.5 -129t57.5 -177q0 -137 -120 -237q-164 -138 -471 -138q-144 0 -306 33q-20 5 -35.5 22.5t-16.5 39.5z M230 1314l3 -539q15 8 56 11q22 2 48.5 4.5t57.5 6.5q301 40 406 159q39 45 39 92q0 25 -11 50q-32 73 -116.5 121.5t-195 72.5t-219.5 24q-33 0 -68 -2zM233 663l3 -547q117 -20 228 -20q259 0 388 108q74 62 74 136q0 50 -31.5 96.5t-86.5 84.5q-184 127 -551 133 q-15 5 -24 9z" />
<glyph unicode="C" d="M101 592q0 163 62 302.5t161 246t209 171.5q213 125 463 125q101 0 208 -20q26 -5 38 -23t12 -39q0 -25 -15.5 -45.5t-44.5 -20.5q-7 0 -14 1q-93 18 -181 18q-217 0 -401 -108q-92 -54 -176 -144.5t-138 -208t-54 -252.5q0 -163 77 -270.5t209.5 -160.5t299.5 -53 q166 0 374 49q8 2 16 2q29 0 46 -21.5t17 -46.5q0 -20 -12 -37t-37 -23q-224 -53 -406 -53q-203 0 -364.5 70.5t-255 206.5t-93.5 334z" />
<glyph unicode="D" horiz-adv-x="1093" d="M100 1366q0 24 15.5 42t35.5 22q74 16 144 16q185 0 349 -108q88 -58 168 -155t130.5 -222t50.5 -268q0 -66 -12 -131q-33 -177 -145.5 -299t-282.5 -189.5t-377 -83.5h-5q-26 0 -44.5 19.5t-20.5 43.5zM230 1312l6 -1185q153 19 283.5 74t218.5 148t113 226 q11 58 11 116q0 121 -42 226t-109.5 185.5t-143.5 130.5q-128 83 -273 83q-31 0 -64 -4z" />
<glyph unicode="E" horiz-adv-x="1297" d="M100 67q0 11 2 68.5t5 143.5t6 182.5t5 187t2 157.5q0 125 -3.5 263.5t-3.5 289.5q0 25 18.5 44t42.5 20l72 5q86 5 178 6h46q70 0 144 -2q385 -12 546 -84q37 -17 37 -61q0 -27 -16.5 -45.5t-44.5 -18.5q-14 0 -29 7q-166 73 -615 73q-63 0 -132 -1.5t-116 -4.5 q6 -288 6 -518l725 -5q31 0 46.5 -20.5t15.5 -44.5q0 -25 -15.5 -45t-47.5 -20l-725 5q-1 -133 -4 -239t-7 -185l-5 -96q328 1 535.5 5.5t296.5 11.5q30 3 46 -19.5t16 -46.5q0 -23 -14 -42.5t-43 -21.5q-98 -9 -324.5 -13t-580.5 -4q-25 0 -45 20t-20 48z" />
<glyph unicode="F" horiz-adv-x="1285" d="M101 0l13 70q24 133 35.5 290t11.5 320q0 183 -13.5 362.5t-37.5 329.5q-1 5 -1 10q0 28 19.5 47t45.5 19q6 0 11 -1l75 -13q119 -21 254 -33.5t272 -12.5q220 0 302 47q15 9 32 9q26 0 45.5 -18.5t19.5 -46.5q0 -8 -2 -17q-20 -75 -264 -100q-54 -6 -126 -6 q-49 0 -119.5 4.5t-148 11t-150 15t-124.5 16.5q16 -116 26 -238.5t13 -252.5h1l727 -5q31 0 46.5 -20.5t15.5 -44.5q0 -25 -15.5 -45t-46.5 -20h-1l-726 5q0 -68 -4.5 -155.5t-11 -178.5t-15.5 -170t-18 -131l-13 -70q-5 -24 -24 -38t-41 -14q-27 0 -47.5 22t-15.5 53z" />
<glyph unicode="G" horiz-adv-x="1851" d="M100 776q0 87 26 174t83 170q168 243 544 319q1 0 2 0.5t2 0.5q97 13 197 13q205 0 386 -52.5t283 -145.5q20 -19 20 -46q0 -39 -37 -59q-16 -9 -30 -9q-21 0 -41 18q-85 78 -243.5 121t-335.5 43q-91 0 -179 -12q-324 -66 -462 -265q-45 -65 -65 -133.5t-20 -136.5 q0 -124 55 -240.5t137 -204.5q96 -103 242 -171t332 -68q100 0 205 22q79 20 158.5 62t143 98t92.5 118q26 55 26 114t-22.5 89.5t-64 45.5t-100.5 29q-72 17 -185 17q-56 0 -122 -3.5t-124 -9t-90 -10.5l-42 -6q-5 -1 -11 -1q-29 0 -45.5 21.5t-16.5 46.5q0 21 12.5 39.5 t40.5 22.5l42 6q34 5 93 11t127 10t129 4q130 0 238.5 -24t178.5 -76q92 -69 92 -216q0 -207 -221 -372q-134 -100 -300 -142q-121 -25 -235 -25q-106 0 -207 22q-279 61 -461 257q-99 106 -163 245.5t-64 288.5z" />
<glyph unicode="H" horiz-adv-x="1110" d="M100 1373q0 31 20.5 47t44.5 16t44.5 -15.5t20.5 -46.5l6 -604l638 -8q-1 156 -2.5 312t-3.5 312q0 26 20 45.5t46 19.5q24 0 44 -19.5t20 -44.5l13 -1354q0 -31 -20.5 -47t-44.5 -16t-44.5 15.5t-20.5 46.5l-6 600l-638 8l6 -619q0 -32 -20.5 -48t-45.5 -16 q-24 0 -44 15.5t-20 46.5z" />
<glyph unicode="I" horiz-adv-x="342" d="M100 1390q0 26 20.5 46t46.5 20q24 0 43.5 -20t19.5 -45l13 -1353q0 -32 -20.5 -48t-45.5 -16q-24 0 -44 15.5t-20 46.5z" />
<glyph unicode="J" horiz-adv-x="993" d="M102 90q0 26 17 47.5t45 21.5q10 0 20 -3q164 -50 280 -50q153 0 222 88q77 100 77 352q0 44 -5.5 126.5t-14.5 183.5t-17.5 203t-14.5 185.5t-6 128.5q0 31 20.5 47t45.5 16q24 0 44 -15.5t20 -46.5q1 -45 7 -128.5t14.5 -185.5t17 -203.5t14 -184t5.5 -126.5 q0 -176 -39 -303.5t-132.5 -196.5t-255.5 -69q-138 0 -320 55q-23 7 -33.5 23.5t-10.5 34.5z" />
<glyph unicode="K" horiz-adv-x="1211" d="M100 33q0 79 9 414.5t23 931.5q1 26 21.5 44.5t45.5 18.5t44 -19.5t19 -46.5q-4 -148 -7 -281.5t-6 -249.5l37 29q136 104 242.5 192.5t184.5 160.5q158 146 178 177q11 17 27 29.5t36 12.5q26 0 44.5 -20.5t18.5 -45.5q0 -19 -10 -35q-75 -117 -488 -452 q-87 -70 -147 -117q162 -121 300 -235.5t250 -223.5q189 -183 189 -267q0 -29 -20.5 -45.5t-44.5 -16.5q-19 0 -36.5 11t-23.5 33q-18 61 -162 199q-114 110 -258 229t-320 248q-7 -286 -11 -454.5t-5 -220.5q0 -31 -20.5 -46.5t-44.5 -15.5q-25 0 -45 15.5t-20 46.5z" />
<glyph unicode="L" horiz-adv-x="1267" d="M100 1384q0 26 20.5 46t46.5 20q24 0 43.5 -19t19.5 -44q11 -427 24.5 -745.5t29.5 -525.5h11q77 0 164.5 12t171.5 20q96 10 182 10q174 0 307 -40q21 -6 33 -25t12 -40q0 -26 -23.5 -48t-57.5 -12q-119 35 -275 35q-92 0 -190.5 -11t-181.5 -21q-41 -5 -72.5 -8.5 t-58.5 -3.5q-52 0 -103 19q-41 15 -46 71q-17 206 -37 535t-20 775z" />
<glyph unicode="M" horiz-adv-x="1497" d="M100 1387q0 30 20 47.5t46 17.5q30 0 50 -23l170 -231q311 -411 415 -488q72 59 169 210q84 131 148.5 237.5t109.5 187.5l39 71q7 13 23.5 23.5t35.5 10.5q29 0 46 -22t17 -44l9 -1372q0 -31 -20 -47t-45 -16q-24 0 -44.5 16t-20.5 47l-7 1130q-186 -310 -274 -420 q-90 -112 -140 -138q-22 -12 -47 -12q-50 0 -111 55q-72 67 -144 153t-138.5 175t-125.5 166l-48 66l14 -1160q0 -32 -20.5 -48t-45.5 -16q-24 0 -44 15.5t-20 46.5z" />
<glyph unicode="N" horiz-adv-x="1264" d="M100 1369q-1 30 20 48t46 18q33 0 52 -27l809 -1165l-36 1153q-1 32 19.5 48.5t45.5 16.5q24 0 44 -15t21 -46l43 -1372q1 -31 -20 -48.5t-46 -17.5q-33 0 -52 27l-810 1166l32 -1121q1 -27 -20 -47t-47 -20q-24 0 -43.5 19t-19.5 44z" />
<glyph unicode="O" horiz-adv-x="1702" d="M100 702q0 113 38 215.5t99 186t131 140.5q200 164 460 174q11 1 19.5 -1.5t15.5 -3.5q190 -10 343 -98.5t245 -207.5q150 -195 150 -429q0 -151 -58.5 -275.5t-162 -214t-239.5 -138.5t-291 -49q-71 0 -143 12t-143 38q-157 57 -279 182t-165 306q-20 83 -20 163z M231 698q0 -93 28 -174.5t68 -136.5q80 -110 212.5 -183.5t306.5 -73.5q62 0 127 11q135 22 248 92.5t182 182t69 256.5q0 125 -47.5 228.5t-125 181.5t-168.5 125q-133 69 -275 76q-9 0 -21 5q-218 -9 -391 -150t-207 -359q-6 -40 -6 -81z" />
<glyph unicode="P" horiz-adv-x="983" d="M100 1371q0 26 20 45.5t45 19.5h2q366 -12 563 -161q154 -116 154 -272q0 -143 -133 -247q-167 -130 -462 -130q-28 0 -57 1l1 -609q0 -31 -20.5 -47t-44.5 -16q-25 0 -45 16t-20 47zM230 1302l1 -545q29 -1 56 -1q252 0 384 102q83 64 83 145q0 91 -102 168 q-148 110 -422 131z" />
<glyph unicode="Q" horiz-adv-x="1796" d="M100 785q0 138 60 274q109 247 347 361q131 62 268 62q135 0 256.5 -50.5t219.5 -129.5t162 -165q125 -168 125 -374q0 -112 -37 -235q-64 -212 -225 -365q136 -49 281 -49q19 0 38 1.5t37 1.5q30 0 46 -20.5t16 -45.5q0 -22 -14 -41t-43 -22q-43 -4 -85 -4 q-108 0 -207.5 24t-186.5 65q-151 -91 -346 -91q-306 0 -524 281q-121 156 -171 373q-17 75 -17 149zM231 787q0 -141 71 -297q42 -91 114 -178t172 -143.5t224 -56.5q115 0 212 39q-86 60 -149 135q-124 145 -124 341q0 26 2 52t22 42.5t45 16.5q26 0 45 -20.5t17 -49.5 q-1 -19 -1 -37q0 -128 74 -233.5t193 -174.5q81 63 146 163q55 85 84.5 184.5t29.5 214.5q0 214 -215 397q-50 43 -119 82t-147 63.5t-153 24.5q-109 0 -210 -49q-195 -93 -286 -297q-47 -105 -47 -219z" />
<glyph unicode="R" horiz-adv-x="1372" d="M100 1371q-1 25 16.5 44t39.5 22q204 27 363 27q220 0 354 -52q265 -103 265 -417q0 -387 -488 -468q-28 -4 -60.5 -8t-70.5 -6l721 -428q30 -18 30 -55q0 -30 -30 -54q-16 -13 -33 -13q-16 0 -33 10l-921 546q-1 1 -3 2.5t-4 2.5q1 -114 1 -204q0 -202 -5 -297 q-2 -26 -22 -43.5t-45 -17.5t-45 20.5t-18 47.5q5 100 5 299q0 136 -2.5 319.5t-7.5 414.5zM231 1316l6 -251q3 -124 5 -233.5t3 -205.5q18 14 42 14q38 -1 74 -1q363 0 511 96q136 88 136 261q0 120 -46 190q-100 150 -445 150q-126 0 -286 -20z" />
<glyph unicode="S" horiz-adv-x="1372" d="M100 1032q0 56 19 113q42 126 162 197.5t284 71.5q213 0 381 -72t282 -181q20 -19 20 -46q0 -24 -17.5 -44.5t-45.5 -21.5q-27 0 -47 18q-96 93 -241 155t-325 62q-122 0 -211 -44.5t-119 -135.5q-12 -36 -12 -72q0 -58 26.5 -104.5t60.5 -77.5q53 -47 123.5 -69 t176.5 -22q37 0 83 3t89 3q183 0 283 -52q75 -38 138.5 -118t63.5 -184q0 -33 -8 -66q-45 -196 -245 -288q-126 -58 -268 -58q-33 0 -67 3q-327 31 -543 221q-22 20 -22 46t20 47t47 21q22 0 40 -16q187 -163 471 -190q26 -2 51 -2q116 0 225 50q133 61 163 190q5 21 5 41 q0 66 -42 115t-92 74q-69 36 -217 36q-44 0 -90 -3t-85 -3q-132 0 -223 29.5t-166 97.5q-50 46 -89 117t-39 159z" />
<glyph unicode="T" horiz-adv-x="1389" d="M102 1382q0 25 16 45t47 20l1060 -4q31 0 46.5 -20t15.5 -45q0 -24 -15.5 -44.5t-47.5 -20.5q-75 1 -149 1h-75q-37 0 -75 -1q-75 0 -150 1v-1275q0 -26 -19.5 -45.5t-45.5 -19.5t-45.5 19.5t-19.5 45.5v1276l-480 2q-31 0 -47 20.5t-16 44.5z" />
<glyph unicode="U" d="M100 1146q0 111 3 234q1 26 21.5 44.5t45.5 18.5t44 -20t19 -47q-3 -130 -3 -244q0 -396 41 -604q54 -272 152 -347q92 -70 240 -70q139 0 231 56.5t146.5 157t77.5 232.5t23 283q0 230 -55 543q-1 6 -1 12q0 30 21.5 46.5t46.5 16.5q21 0 38.5 -12.5t22.5 -39.5 q56 -323 56 -574q0 -530 -252 -738q-66 -55 -158 -85t-195 -30q-176 0 -279 67t-157.5 185.5t-84.5 270.5q-44 228 -44 644z" />
<glyph unicode="V" horiz-adv-x="1246" d="M100 1361q0 29 21.5 45.5t46.5 16.5q21 0 39 -13t22 -41q36 -255 75.5 -465.5t82.5 -377.5q85 -332 165 -376q16 -8 29 5q183 177 438 1204q6 22 24.5 34.5t39.5 12.5q27 0 48.5 -23t13.5 -56q-246 -987 -432 -1219q-69 -86 -155 -86q-96 0 -169.5 117t-131.5 346 q-78 309 -156 866q-1 5 -1 10z" />
<glyph unicode="W" horiz-adv-x="1840" d="M100 1360q0 27 20 46.5t46 19.5q25 0 44 -19t20 -44q6 -200 18 -370.5t31 -310.5q65 -481 184 -565q17 -13 27.5 -10t27.5 16q29 23 57.5 63t58.5 96t56.5 126.5t51.5 153.5q109 370 121 810q1 31 20.5 46t43.5 15t44.5 -15t21.5 -45q29 -692 181 -1054q44 -104 88 -160 q46 -59 73 -67q30 -9 48 -8q40 3 84 68q54 78 86 193t45.5 252.5t13.5 283.5q0 116 -7 232.5t-19 224.5v8q0 30 20.5 46t45.5 16q22 0 41 -13.5t22 -42.5q12 -112 19.5 -230.5t7.5 -235.5q0 -161 -16.5 -312.5t-53 -279t-98.5 -216.5q-32 -46 -82 -85.5t-118 -39.5 q-36 0 -72 13q-78 28 -136 103q-29 38 -61 97t-66 139q-68 162 -116 444q-70 -330 -176 -531q-126 -241 -259 -241q-48 0 -98 33q-82 57 -141 208q-60 155 -104.5 445.5t-44.5 696.5z" />
<glyph unicode="X" horiz-adv-x="1421" d="M99 31q0 20 14 38l523 677q-118 153 -235.5 306.5t-236.5 306.5q-14 18 -14 39q0 26 21.5 45.5t47.5 19.5q29 0 48 -25q113 -146 226 -292.5t226 -292.5l436 565q19 25 48 25q26 0 47.5 -19.5t21.5 -46.5q0 -20 -14 -38l-457 -593l507 -657q14 -18 14 -39 q0 -26 -21.5 -46t-47.5 -20q-29 0 -48 25q-121 158 -242.5 316t-243.5 315l-503 -651q-19 -25 -48 -25q-26 0 -47.5 20t-21.5 47z" />
<glyph unicode="Y" horiz-adv-x="1272" d="M100 1374q0 26 21 46t47 20q28 0 47 -24l523 -634q77 170 155 339t155 338q7 15 23 26.5t36 11.5q27 0 46 -19t19 -46q0 -14 -6 -27l-662 -1446q-7 -15 -23 -26.5t-36 -11.5q-27 0 -46 19t-19 46q0 14 6 27q73 159 146 318.5t146 318.5l-563 684q-15 19 -15 40z" />
<glyph unicode="Z" horiz-adv-x="1473" d="M100 114q0 39 40 90q60 77 294 279q117 101 206.5 183t151.5 143q62 62 112 120.5t85 114.5q64 101 64 164q0 30 -15 50q-31 41 -124.5 55t-201.5 14q-118 0 -237.5 -8.5t-224.5 -8.5q-29 0 -54 1q-31 1 -46 21t-15 44t15.5 44.5t46.5 20.5h16.5h17.5q69 0 159 3.5 t182 7.5t167 4q209 0 328 -57.5t119 -190.5q0 -195 -294 -483q-68 -67 -156.5 -147.5t-196.5 -174.5q-214 -185 -277 -255q574 -15 828 -15q119 0 169 3q20 15 40 16q24 0 49 -24t25 -46q0 -15 -9 -30q-19 -30 -33 -34.5t-44 -10.5q-25 -5 -169 -5q-260 0 -903 17 q-72 1 -104 56q-11 18 -11 39z" />
<glyph unicode="[" horiz-adv-x="868" d="M100 1358v1q0 28 18.5 46t45.5 19l529 10h2q27 0 46 -19t19 -46q0 -26 -19 -45.5t-45 -19.5l-466 -9l10 -1288l462 8h2q27 0 46 -19t19 -46t-19.5 -46t-45.5 -19l-527 -10h-2q-26 0 -45.5 19.5t-19.5 45.5z" />
<glyph unicode="\" horiz-adv-x="959" d="M100 1452q0 28 21.5 44.5t46.5 16.5q40 0 56 -37l630 -1488q5 -13 5 -26q0 -26 -18 -45.5t-45 -19.5q-46 0 -62 39l-628 1487q-6 15 -6 29z" />
<glyph unicode="]" horiz-adv-x="868" d="M100 -50q0 27 19 46t46 19h2l462 -8l9 1288l-465 9q-26 0 -45.5 19.5t-19.5 45.5q0 27 19 46t46 19h2l530 -10q27 -1 45.5 -19t18.5 -46l-1 -1l-10 -1418q0 -26 -19.5 -45.5t-45.5 -19.5h-1l-527 10q-26 0 -45.5 19t-19.5 46z" />
<glyph unicode="^" horiz-adv-x="1142" d="M99 267q0 12 5 26q26 67 60 156t76 201q136 361 183 455q22 43 46.5 81.5t68.5 57.5q24 10 47 10q51 0 85 -41t53 -77q31 -61 59.5 -130.5t64.5 -171t91 -258.5q32 -90 57 -162.5t43 -124.5q13 -36 -10 -61t-49 -25q-20 0 -38 11t-25 31q-18 52 -43 123t-57 161 q-69 198 -116.5 326t-70.5 178q-26 56 -48 82q-19 -22 -42 -69q-22 -45 -67 -155.5t-111 -286.5q-84 -223 -135 -357q-8 -21 -25 -31t-35 -10q-25 0 -46 16.5t-21 44.5z" />
<glyph unicode="_" horiz-adv-x="783" d="M82 -160q0 27 19 46t46 19h481q27 0 46 -19t19 -46t-19 -46t-46 -19h-481q-27 0 -46 19t-19 46z" />
<glyph unicode="`" horiz-adv-x="215" d="M-1 1368q0 29 21 47.5t45 18.5q39 0 57 -33l73 -166q20 -34 20 -56q0 -18 -14.5 -30t-32.5 -12q-24 0 -43 33l-116 165q-10 16 -10 33z" />
<glyph unicode="a" horiz-adv-x="1095" d="M100 433q0 153 71 292q104 204 316 272q81 27 156 27q94 0 177 -44q145 -77 165 -285q3 -11 3 -23q0 -23 -9 -53q-15 -158 -15 -282q0 -173 29 -281q3 -10 3 -19q0 -28 -21.5 -44.5t-46.5 -16.5q-19 0 -36 11t-24 36q-31 115 -33 292q-95 -153 -204 -241 q-66 -53 -136 -60q-42 -12 -82 -12q-57 0 -104 21t-81 53q-61 57 -94.5 147.5t-33.5 209.5zM230 431q0 -86 23 -154t59 -102q45 -42 102 -42q19 0 36.5 4.5t39.5 6.5q17 2 67 41q50 40 106.5 113t106.5 164t81 183q1 10 2 20.5t2 20.5q-9 96 -62.5 152t-145.5 56 q-55 0 -120 -21q-161 -51 -235 -197q-62 -123 -62 -245z" />
<glyph unicode="b" horiz-adv-x="1199" d="M99 93q0 71 10.5 163t10.5 168v8q0 64 7 84q3 89 5.5 243t5.5 373l3 245q0 27 19.5 45.5t46.5 18.5q26 0 45 -20t19 -46l-3 -244q-1 -104 -2 -187.5t-3 -145.5q202 204 395 216q14 1 29 1q171 0 279 -135q62 -78 97.5 -181t35.5 -211q0 -80 -21.5 -158t-67.5 -146 q-66 -97 -168 -149.5t-239 -52.5q-222 0 -359 226q-2 -43 -4.5 -78t-5.5 -61q-3 -27 -20.5 -47.5t-43.5 -20.5q-38 0 -54.5 27.5t-16.5 64.5zM257 506q8 -22 21 -61q113 -333 324 -333q169 0 267.5 106t98.5 276q0 97 -34.5 186.5t-98.5 147t-151 57.5h-14 q-189 -13 -411 -288q-1 -23 -1 -46t-1 -45z" />
<glyph unicode="c" horiz-adv-x="964" d="M100 391q0 101 40 206q37 98 106.5 185t169 141.5t224.5 54.5q82 0 170 -27q23 -7 33.5 -23.5t10.5 -35.5q0 -25 -16.5 -46.5t-44.5 -21.5q-10 0 -20 3q-64 19 -125 19q-96 0 -172.5 -41.5t-130.5 -108t-83 -143.5q-32 -85 -32 -165q0 -123 71.5 -197t204.5 -74 q115 0 271 56q11 4 23 4q26 0 45.5 -18.5t19.5 -44.5q0 -23 -13 -40t-31 -23q-178 -65 -316 -65q-153 0 -251 72.5t-132 185.5q-22 73 -22 147z" />
<glyph unicode="d" horiz-adv-x="1192" d="M101 508q0 112 38 218.5t103 184.5q106 128 273 128q18 0 37 -1q192 -15 391 -223v145.5t1 187.5l2 244q0 31 20.5 47t44.5 16q25 0 45 -16t20 -48l-2 -245q-1 -135 -1.5 -245.5t-0.5 -196.5q0 -109 1 -174q6 -18 6 -63v-20v-21q0 -74 7 -160.5t7 -152.5 q0 -39 -15.5 -67.5t-55.5 -28.5q-27 0 -44 21t-19 48q-2 26 -4 61t-4 78q-139 -220 -355 -220q-145 0 -256.5 64t-175 177.5t-63.5 261.5zM232 514q0 -168 98 -273.5t267 -105.5q205 0 324 327q8 21 13 36t9 25v91q-217 279 -405 295q-9 1 -18 1q-88 0 -153 -58.5t-100 -149 t-35 -188.5z" />
<glyph unicode="e" horiz-adv-x="1156" d="M100 425q0 34 4 71q23 191 159 327q176 176 463 176q110 0 193 -42.5t118 -120.5q19 -43 19 -91q0 -82 -42.5 -144.5t-120.5 -115.5q-219 -148 -635 -148q-6 0 -16 2q29 -104 112.5 -163t210.5 -59q170 0 395 111q14 7 29 7q26 0 45.5 -18t19.5 -45q0 -43 -36 -61 q-114 -56 -232 -90t-228 -34q-113 0 -210.5 42t-166.5 140q-39 55 -60 117t-21 139zM231 461q14 6 27 6q377 0 563 126q52 35 79 71.5t27 84.5q0 28 -12.5 45t-32.5 32q-56 43 -155 43q-133 0 -242 -49.5t-176.5 -141t-77.5 -217.5z" />
<glyph unicode="f" horiz-adv-x="1106" d="M100 917q0 26 19.5 45.5t45.5 19.5h177q1 131 3 200q2 83 45 145t113.5 96t154.5 34q44 0 88 -10q151 -33 251 -187q11 -17 11 -35q0 -27 -21.5 -46t-48.5 -19q-32 0 -51 29q-71 109 -169 131q-29 6 -58 6q-73 0 -128 -39t-57 -104q-1 -70 -3 -201h169q26 0 45.5 -19.5 t19.5 -45.5t-19.5 -45.5t-45.5 -19.5h-170q-1 -55 -1 -202.5t-2 -386.5l-1 -199q0 -31 -20 -46.5t-45 -15.5q-24 0 -44.5 15.5t-20.5 47.5l1 198q2 238 2 385t1 204h-176q-26 0 -45.5 19.5t-19.5 45.5z" />
<glyph unicode="g" horiz-adv-x="1119" d="M101 -392q0 34 31 56q15 11 31.5 11t35.5 -11q132 -80 252 -94q27 -3 52 -3q117 0 184.5 61t112.5 155q90 187 90 505q0 38 -1 77q-173 -345 -335 -364q-43 -13 -82 -13q-95 0 -156.5 65t-91.5 165t-30 205q0 150 62 291q91 207 284 276q71 26 141 26q144 0 223 -95 t89 -236q4 -20 9 -71.5t9 -114t6.5 -120.5t2.5 -92q0 -347 -103 -561q-58 -119 -159 -204.5t-256 -85.5q-29 0 -60 4q-156 18 -311 113q-30 18 -30 55zM324 423q0 -86 21.5 -161.5t52.5 -104.5q39 -37 83 -37q17 0 31 5.5t32 5.5q14 0 53 33q38 33 79 92t77 126t59 125 q47 119 53 150q-1 8 -1.5 13t-0.5 7q-9 106 -51 157.5t-127 51.5q-53 0 -101 -18q-138 -49 -206 -201q-54 -122 -54 -244z" />
<glyph unicode="h" horiz-adv-x="1120" d="M100 1396q0 31 20.5 47t44.5 16q25 0 45 -16t20 -47l1 -596q114 198 288 219q23 3 45 3q140 0 260 -105q89 -77 142.5 -197.5t53.5 -282.5q0 -200 -105 -413q-17 -34 -58 -34q-29 0 -53 28q-14 15 -13 33q0 14 8 31q91 183 91 355q0 128 -41.5 225.5t-109.5 156.5 q-83 73 -176 73q-84 0 -143 -56.5t-96.5 -140t-56.5 -165.5q-28 -119 -34 -279v-196q0 -31 -20.5 -47t-45.5 -16q-24 0 -43.5 15t-20.5 45q-2 45 -2 94q0 28 0.5 55t1.5 53z" />
<glyph unicode="i" horiz-adv-x="455" d="M100 1215q0 37 22.5 71.5t55.5 56t65 21.5q47 0 79.5 -39.5t32.5 -78.5q0 -37 -23 -68t-62 -45q-44 -22 -78 -22q-37 0 -64.5 30.5t-27.5 73.5zM108 54q0 13 5 26q9 21 14.5 83.5t8.5 147.5t4.5 175.5t1.5 168.5v124q0 85 -1 163q0 32 20.5 48t45.5 16q24 0 43.5 -15.5 t19.5 -46.5q1 -53 1.5 -104t0.5 -100q0 -163 -1.5 -295t-8.5 -282q-3 -80 -22 -127.5t-66 -47.5q-26 0 -46 19t-20 47z" />
<glyph unicode="j" horiz-adv-x="865" d="M100 -450q0 27 19 46t46 19q14 0 27 -6q117 -53 200 -53q87 0 137 53t73.5 144.5t32.5 208.5q4 48 4 107q0 233 -62 634q-15 98 -23 151.5t-8 69.5q0 32 20 47.5t45 15.5q24 0 44.5 -15.5t21.5 -45.5q1 -12 8 -63t20 -140q60 -387 60 -653q0 -223 -42 -361 q-87 -283 -328 -283q-69 0 -127.5 16.5t-129.5 48.5q-15 7 -26.5 22.5t-11.5 36.5zM481 1220q0 38 21.5 72.5t54.5 56.5t65 22q47 0 80 -39.5t33 -78.5q0 -37 -23 -68t-62 -45q-40 -20 -72 -20q-45 0 -71 31.5t-26 68.5z" />
<glyph unicode="k" horiz-adv-x="1071" d="M100 243q0 336 35 1155q1 30 21 45t44 15t44 -15.5t20 -45.5v-5q-11 -256 -18 -464.5t-11 -368.5q3 2 10.5 7.5t19.5 12.5q181 104 283 203q104 101 104 149q0 26 19.5 45.5t45.5 19.5q32 0 48.5 -22t16.5 -58q0 -87 -133 -217q-66 -64 -118.5 -101.5t-112.5 -76.5 q243 -116 400 -239q154 -121 154 -225q0 -26 -19.5 -45.5t-45.5 -19.5q-22 0 -43.5 18t-21.5 38q0 50 -88 120q-192 151 -500 285q-10 4 -22 14q-3 -126 -3 -219q0 -148 7 -195q1 -6 1 -11q0 -30 -21 -46t-46 -16q-21 0 -39.5 13t-22.5 41q-8 51 -8 209z" />
<glyph unicode="l" horiz-adv-x="363" d="M100 252q0 336 35 1155q1 26 21.5 44t45.5 18t44.5 -20.5t17.5 -47.5q-17 -415 -26 -703t-9 -450q0 -141 7 -186q1 -6 1 -11q0 -30 -21 -46t-46 -16q-21 0 -39.5 13t-22.5 41q-8 51 -8 209z" />
<glyph unicode="m" horiz-adv-x="1619" d="M99 921q0 27 21.5 46.5t47.5 19.5q29 0 48 -24q49 -63 77 -167q92 184 239 184q73 0 134 -39.5t107.5 -102.5t77.5 -131q57 171 161 245q67 48 140 48q66 0 127.5 -37t111.5 -97q60 -73 94 -179t34 -240q0 -206 -110 -430q-18 -34 -59 -34q-29 0 -53 27q-13 15 -13 34 q0 15 8 31q97 196 97 371q0 111 -27.5 198t-75.5 146q-63 77 -132 77q-77 0 -131 -94q-43 -76 -64.5 -164t-29.5 -185q6 -46 9.5 -92t3.5 -95q0 -42 -2.5 -88t-9.5 -99q-3 -28 -22 -41.5t-42 -13.5t-43 14.5t-23 43.5q-7 113 -7 211q0 84 5 157q-28 193 -105 307 q-83 124 -156 124q-62 0 -116 -93q-60 -104 -86 -297q1 -60 1 -114q0 -133 -8 -229l-6 -69q-2 -29 -21.5 -43t-42.5 -14q-24 0 -44 15t-22 45q-3 70 -3 135q0 157 16 281q-9 310 -91 413q-15 18 -15 39z" />
<glyph unicode="n" horiz-adv-x="1295" d="M100 966q0 29 21 46.5t46 17.5q29 0 48 -23q72 -87 105 -268q136 246 351 277q34 5 67 5q120 0 212 -55t151 -145t80 -194q14 -67 14 -137q0 -221 -141 -467q-18 -31 -55 -31q-31 0 -55 30q-13 16 -13 33q0 16 10 33q124 216 124 403q0 56 -11 109q-16 77 -58.5 143 t-108 106.5t-150.5 40.5q-23 0 -47 -3q-99 -14 -169 -87t-112.5 -176.5t-61.5 -210.5v-26q0 -144 -15 -290l-4 -39q-3 -28 -22 -41.5t-41 -13.5q-24 0 -44.5 15t-21.5 45q-2 45 -2 88q0 147 20 271q-4 230 -36 345q-31 114 -57 146q-24 30 -24 53z" />
<glyph unicode="o" horiz-adv-x="1209" d="M100 498q0 40 6 81q28 199 167 326q140 128 316 135q12 2 24 -3q249 -15 408 -246q43 -62 66 -137.5t23 -167.5q0 -137 -65 -245.5t-157 -167.5q-59 -38 -133 -60.5t-153 -22.5q-147 0 -250.5 64.5t-166.5 160.5q-85 132 -85 283zM229 496q0 -86 33.5 -156t87 -119.5 t111.5 -73.5q70 -28 144 -28q103 0 187.5 48.5t128.5 117.5q29 46 43.5 99.5t14.5 108.5q0 116 -54 207.5t-139.5 146t-179.5 60.5q-8 0 -16 3q-102 -6 -184 -62.5t-129.5 -148t-47.5 -203.5z" />
<glyph unicode="p" horiz-adv-x="1199" d="M99 905q0 37 16.5 64.5t54.5 27.5q26 0 43.5 -21t20.5 -48q3 -25 5.5 -59.5t4.5 -78.5q137 226 359 226q137 0 239 -52.5t168 -149.5q46 -68 67.5 -146t21.5 -158q0 -108 -35.5 -211t-97.5 -181q-108 -135 -279 -135q-15 0 -29 1q-193 12 -395 216q2 -62 3 -145.5 t2 -187.5l3 -244q0 -26 -19 -46t-45 -20q-27 0 -46.5 18.5t-19.5 45.5l-3 245q-3 219 -5.5 373t-5.5 243q-7 20 -7 84v8q0 76 -10.5 168t-10.5 163zM257 492q1 -22 1 -45t1 -46q222 -274 411 -288h14q87 0 151 57.5t98.5 147t34.5 186.5q0 170 -98.5 276t-267.5 106 q-211 0 -324 -333q-13 -39 -21 -61z" />
<glyph unicode="q" horiz-adv-x="1194" d="M102 518q0 148 62.5 262t174 178.5t257.5 64.5q218 0 356 -221q5 87 9 138q2 27 19 48t44 21q39 0 55 -28t16 -66q0 -67 -7.5 -154.5t-7.5 -162.5v-17.5v-17.5q0 -48 -7 -68q-1 -89 -1.5 -243t-0.5 -373v-245q0 -31 -20.5 -47t-44.5 -16t-44.5 16t-20.5 47v577 q-198 -206 -391 -221q-18 -1 -36 -1q-167 0 -274 130q-64 78 -101 183.5t-37 215.5zM231 512q0 -97 35 -187.5t99.5 -148.5t152.5 -58q8 0 17 1q189 15 407 293q0 23 0.5 46t0.5 45q-4 10 -9 25t-13 36q-117 329 -324 329q-169 0 -267.5 -105.5t-98.5 -275.5z" />
<glyph unicode="r" horiz-adv-x="827" d="M100 69q0 19 6.5 39t7.5 38q3 55 11 148.5t8 181.5q0 64 -2 139q-6 221 -18 269q-5 21 -5 38q0 29 16.5 47.5t46.5 18.5q23 0 40 -15t22 -34q22 -83 26 -255q146 287 395 318h8q30 0 46.5 -21.5t16.5 -46.5q0 -22 -13 -40t-42 -21q-254 -32 -374 -455q-29 -103 -44 -212 q-3 -45 -5.5 -71t-2.5 -49q0 -13 2 -21t2 -14q0 -22 -29.5 -40.5t-50.5 -18.5q-28 0 -48 27.5t-20 49.5z" />
<glyph unicode="s" horiz-adv-x="1056" d="M100 732q0 93 49 156.5t127 95.5t166 32q286 0 477 -182q20 -19 20 -45q0 -25 -17.5 -45t-45.5 -21q-28 0 -46 17q-57 55 -153.5 100.5t-196.5 45.5q-206 0 -243 -112q-8 -24 -8 -46q0 -60 56 -111q62 -57 208 -57q24 0 51 2t54 2q129 0 209 -38.5t122 -122.5 q27 -56 27 -109q0 -24 -5 -48q-33 -146 -181 -213q-93 -43 -197 -43q-21 0 -43 2q-237 22 -394 160q-22 19 -22 49q0 27 19.5 45.5t45.5 18.5q25 0 43 -15q70 -61 156 -95t197 -34q139 0 212 80q40 44 40 90q0 27 -14 55q-43 88 -182 88q-30 0 -62 -1.5t-58 -1.5 q-119 0 -176 15q-79 21 -140 77t-84 134q-11 37 -11 75z" />
<glyph unicode="t" horiz-adv-x="812" d="M100 919q0 24 19.5 43.5t45.5 19.5l201 -1q1 30 3 92t4 132t2 123q0 16 -0.5 29t-0.5 24q0 30 20.5 46t44.5 16t44 -15t21 -46q1 -20 1 -51q0 -55 -2 -125t-4 -132.5t-3 -93.5l151 -1q31 0 47 -21t16 -45t-15.5 -44t-46.5 -20h-1q-39 0 -77.5 0.5t-77.5 0.5 q-2 -90 -2 -170q0 -362 49 -509q23 -67 48 -80q15 -8 25.5 -24t10.5 -35q0 -27 -20 -46t-46 -19q-16 0 -30 8q-129 69 -156 377q-6 67 -9 144.5t-3 166.5q0 86 3 188q-49 0 -98 0.5t-99 0.5q-26 0 -45.5 20.5t-19.5 46.5z" />
<glyph unicode="u" horiz-adv-x="1114" d="M100 513q0 196 68 450q6 22 25 34.5t40 12.5q27 0 49 -24t12 -57q-65 -234 -65 -412q0 -135 37 -238q26 -72 75 -121.5t117 -49.5q58 0 120 40q172 110 227 401q0 20 -0.5 41.5t-0.5 43.5q0 43 1 89.5t3 95.5l7 115q14 56 65 56q24 0 42.5 -18t21.5 -41q9 -91 9 -174 q0 -117 -18 -219q6 -345 62 -449q7 -12 8 -13q33 -18 33 -58q0 -38 -32 -55q-14 -8 -30 -8q-20 0 -42 12q-75 39 -108 262q-33 -57 -88 -115t-125.5 -96.5t-152.5 -38.5q-53 0 -105 19q-125 46 -190 188.5t-65 326.5z" />
<glyph unicode="v" horiz-adv-x="975" d="M100 965q0 29 21 45t46 16q22 0 40.5 -13t21.5 -41q105 -753 214 -841q118 83 304 836q6 24 23.5 35.5t37.5 11.5q25 0 46.5 -16t21.5 -46q0 -8 -2 -16q-145 -587 -257 -788q-83 -151 -173 -151q-29 0 -59 16q-96 50 -160 285q-65 233 -124 656q-1 6 -1 11z" />
<glyph unicode="w" horiz-adv-x="1544" d="M100 929q0 31 20.5 46.5t44.5 15.5t44 -15t21 -46q16 -525 98 -720q32 -75 61 -94q8 -5 10 -5t13 8q51 38 91.5 118.5t70.5 182t49.5 207.5t28.5 195q2 39 4 80t15.5 69t52.5 28q32 0 48.5 -21t16.5 -56q0 -31 -4.5 -96.5t-4.5 -113.5q0 -131 26 -251.5t70 -196.5 q38 -65 88.5 -104.5t108.5 -39.5q69 0 138 60q103 92 103 295q0 190 -117 412q-9 15 -9 31q0 27 22 45.5t48 18.5q36 0 53 -34q133 -249 133 -473q0 -134 -39.5 -233t-112.5 -164q-99 -88 -217 -88q-102 0 -178 54t-126 140.5t-77 182.5q-84 -265 -205 -353q-44 -32 -89 -32 q-40 0 -81 25q-89 57 -154 293t-65 629z" />
<glyph unicode="x" horiz-adv-x="1139" d="M100 59q0 23 17 41l367 405l-66 99q-164 245 -228 279q-10 -3 -20 -3q-26 0 -46 17t-20 45q0 37 23 55t50 18q31 0 63.5 -14.5t55.5 -33.5q82 -69 253 -326q6 -9 12.5 -18.5t12.5 -18.5l347 384q19 21 45 21t47 -20.5t21 -47.5q0 -23 -17 -41l-369 -407 q104 -154 165 -234q89 -115 134 -131q13 6 28 6q25 0 44.5 -18t19.5 -45q0 -36 -24 -54t-61 -18q-106 0 -241 176q-33 43 -71.5 97.5t-83.5 121.5l-345 -381q-20 -22 -45 -22q-26 0 -47 20.5t-21 47.5z" />
<glyph unicode="y" horiz-adv-x="961" d="M50 624q0 147 20 324q3 28 22 41.5t42 13.5q24 0 44.5 -15.5t20.5 -46.5v-8q-19 -172 -19 -311q0 -245 59 -388q48 -117 115 -117q61 0 137 98q175 227 218 710q2 28 21.5 42.5t42.5 14.5t42.5 -14t23.5 -41l12 -150q11 -181 11 -340q0 -669 -194 -934 q-51 -70 -116.5 -103t-139.5 -33q-96 0 -203 52q-34 17 -34 59q0 29 27 52q16 13 35 13q14 0 30 -7q79 -40 142 -40q44 0 80 19q69 36 114.5 129t73 220t40 265.5t14.5 265.5q-23 -64 -59 -134.5t-84.5 -132.5t-107 -101t-127.5 -39q-82 0 -138.5 51.5t-95.5 146.5 q-69 166 -69 438z" />
<glyph unicode="z" horiz-adv-x="1173" d="M100 90q0 28 16.5 58t42.5 54q30 27 90.5 77.5t130.5 108t131 108.5t93 79q87 77 154 171q46 66 46 97q0 14 -8 22q-40 38 -239 38q-32 0 -82.5 -1.5t-104.5 -3.5t-96 -3.5t-58 -1.5q-40 0 -66.5 14.5t-26.5 50.5q0 32 21.5 48.5t55.5 16.5h7.5h8.5q18 0 66.5 2 t108.5 4.5t113.5 4t81.5 1.5q57 0 102.5 -5.5t103.5 -20.5q67 -17 105 -62t38 -118q0 -62 -50 -136t-129.5 -151.5t-169 -152.5t-170.5 -140t-133 -112q364 -9 542 -9q100 0 142 3q16 9 32 9q23 0 48.5 -24.5t25.5 -49.5q0 -22 -22 -40q-45 -37 -155 -37q-97 0 -208.5 3.5 t-222.5 8t-208 7.5q-65 1 -83 5q-40 9 -57 30t-17 47z" />
<glyph unicode="{" horiz-adv-x="1096" d="M100 465q0 32 27.5 49.5t64.5 24.5t66 7q43 22 72 64.5t29 103.5q0 22 -5 46q-7 39 -50 134q-24 54 -40 101.5t-16 99.5q0 121 67.5 206t163.5 113q43 13 87 13q65 0 119 -26t90 -63q18 -18 18 -45q0 -26 -18.5 -46t-43.5 -20q-29 0 -56 27q-18 18 -49 30.5t-67 12.5 q-49 0 -89.5 -28.5t-65.5 -72t-25 -87.5q0 -41 14.5 -85t36.5 -92q26 -58 42 -114.5t16 -110.5t-18.5 -105t-60.5 -100q151 -97 151 -330q0 -72 -10 -150t-10 -145q0 -111 41.5 -193t103.5 -116q46 -25 105 -25q56 0 94 24q27 17 51 17q23 0 42 -18t19 -45q0 -36 -30 -56 q-82 -53 -184 -53q-84 0 -153 38q-218 120 -218 444q0 61 10 139.5t10 150.5q0 62 -22 119q-37 96 -129 111q-23 -8 -48.5 -13.5t-48.5 -5.5q-35 0 -59 15.5t-24 54.5z" />
<glyph unicode="|" horiz-adv-x="293" d="M100 63l1 1257q0 27 4 71t14 79t28 35q19 0 29 -35.5t14 -79.5t4 -71l-1 -1257q0 -28 -4 -72t-14 -78.5t-29 -34.5t-29 35t-13.5 79.5t-3.5 71.5z" />
<glyph unicode="}" horiz-adv-x="1095" d="M100 1328q0 36 30 56q82 53 184 53q84 0 153 -38q218 -120 218 -444q0 -61 -10 -139.5t-10 -150.5q0 -62 22 -119q38 -96 129 -111q23 8 48.5 13.5t48.5 5.5q35 0 59 -15.5t24 -54.5q0 -32 -27.5 -49.5t-64.5 -24.5t-66 -7q-42 -22 -71 -64t-29 -102q0 -23 5 -47 q8 -45 49 -135q24 -54 40 -101.5t16 -99.5q0 -121 -67.5 -206t-163.5 -113q-43 -13 -87 -13q-65 0 -119 26t-90 63q-18 18 -18 45q0 26 18.5 46t43.5 20q29 0 56 -27q18 -18 49 -30.5t67 -12.5q49 0 90 29t66 72.5t25 87.5q0 41 -14.5 84.5t-36.5 91.5q-26 58 -42 115 t-16 111t18 105t60 99q-151 97 -151 330q0 72 10 150t10 145q0 111 -41.5 193.5t-103.5 116.5q-46 25 -104 25q-56 0 -94 -24q-28 -18 -53 -18q-23 0 -41.5 18t-18.5 45z" />
<glyph unicode="~" horiz-adv-x="1531" d="M100 631q0 13 5 27q24 62 73.5 115.5t117.5 86.5t149 33q71 0 148 -29q64 -23 159 -77q65 -36 135.5 -68.5t146.5 -32.5q54 0 105 21q115 46 173 139q18 29 53 29q34 0 56.5 -31t0.5 -68q-56 -90 -159 -153.5t-235 -63.5q-47 0 -97.5 10t-103.5 32q-19 8 -56.5 28t-81 43 t-82 42.5t-59.5 27.5q-49 18 -98 18q-79 0 -139 -43.5t-85 -106.5q-8 -21 -24.5 -30.5t-34.5 -9.5q-25 0 -46 16.5t-21 44.5z" />
<glyph unicode="&#xa1;" horiz-adv-x="414" d="M100 1309q0 50 26 88.5t77 38.5q55 0 83 -41.5t28 -89.5q0 -31 -12 -76.5t-34 -80t-54 -34.5q-42 0 -62 33q-52 92 -52 162zM102 490q0 138 10 281q3 19 2 41t3 42q8 41 24 69t60 28q64 0 81 -47t17 -118v-26q6 -65 6 -147q0 -225 -43 -574q-3 -27 -22.5 -45.5 t-44.5 -18.5t-43 18t-21 41q-29 220 -29 456z" />
<glyph unicode="&#xa2;" horiz-adv-x="964" d="M100 391q0 101 40 206q48 129 143 227.5t231 136.5q3 69 6 142t6 151q1 26 21.5 44t45.5 18q26 0 45 -20t17 -48q-3 -71 -6 -138.5t-5 -131.5q41 0 82 -7t84 -20q21 -6 33 -24.5t12 -39.5q0 -27 -24 -48.5t-58 -11.5q-66 20 -134 20q-9 -239 -13.5 -418.5t-5.5 -299.5 q71 13 157 44q11 4 23 4q26 0 45.5 -18.5t19.5 -44.5q0 -23 -13 -40t-31 -23q-54 -19 -103.5 -33t-96.5 -22q1 -36 4 -57t3 -41q0 -30 -21 -46t-46 -16q-50 0 -58.5 44.5t-9.5 105.5q-148 3 -243 75.5t-128 182.5q-22 73 -22 147zM229 385q0 -113 67.5 -188.5t194.5 -79.5 q0 119 5 295.5t13 408.5q-88 -36 -150 -106t-97 -162q-33 -88 -33 -168z" />
<glyph unicode="&#xa3;" horiz-adv-x="1272" d="M100 609q0 21 16.5 43t35.5 22h14l134 -1q-10 53 -10 103q0 167 113 282q65 67 152 103.5t202 36.5q143 0 268 -79q31 -19 31 -46t-14 -50.5t-42 -23.5t-45 11q-42 27 -95 43t-111 16q-59 0 -115 -18q-84 -26 -148.5 -94.5t-64.5 -174.5q0 -49 12 -110l240 -2 q26 0 45.5 -19.5t19.5 -45.5q0 -20 -17 -42.5t-35 -22.5h-14l-210 1q13 -69 13 -135q0 -143 -62 -273l694 -4q25 0 45 -18t20 -42q0 -33 -18.5 -51t-46.5 -19h-1l-808 5q-27 0 -45.5 19.5t-18.5 45.5q0 20 13 38q98 132 98 298q0 66 -16 138l-164 1q-27 0 -46 19t-19 46z " />
<glyph unicode="&#xa4;" horiz-adv-x="1401" d="M100 956q0 20 15 41t32 21h24q11 0 28 -14l144 -121q139 150 339 161h4q17 0 21.5 -2t30.5 -4q28 -1 93 -22q122 -40 214 -138q9 7 42 34.5t66 55.5t41 35q24 21 36 21q22 0 31 -2t23 -16q17 -19 17 -43q0 -25 -27 -49q-10 -9 -44 -37.5t-68 -56.5t-44 -37 q38 -64 58.5 -137.5t20.5 -160.5q0 -142 -84 -265l135 -115q21 -17 21 -43q0 -24 -17.5 -43.5t-41.5 -19.5q-23 0 -40 15l-136 116q-63 -55 -151 -90t-187 -35q-100 0 -185 36.5t-144 87.5l-129 -115q-16 -16 -41 -16t-42 18t-17 43q0 27 20 45l130 115q-45 66 -66.5 141.5 t-21.5 152.5q0 147 72 273l-150 126q-22 18 -22 44zM316 501q0 -71 25 -137t77 -118q42 -47 114 -86t159 -39q31 0 61 6q137 26 231.5 119t94.5 249q0 121 -55 215t-141.5 150t-182.5 62q-8 0 -16 3q-129 -7 -235 -104q-58 -53 -95 -133.5t-37 -186.5z" />
<glyph unicode="&#xa5;" horiz-adv-x="1165" d="M100 1180q0 26 20 45t48 19q31 0 50 -27l400 -541l326 544q20 32 51 32q29 0 50 -17t21 -43q0 -23 -10 -39l-300 -499l122 -2q26 0 45.5 -19t19.5 -45q0 -21 -16.5 -43.5t-35.5 -22.5h-14l-189 2l1 -108l189 -1q28 0 46.5 -20.5t18.5 -45.5q0 -20 -17 -42t-35 -22h-14 l-186 1l2 -219v-15q0 -19 -22 -35.5t-43 -16.5q-27 0 -46 19t-19 46l-2 222l-191 2q-27 0 -46 19t-19 46q0 21 16.5 43t34.5 22h15l188 -2l-1 107v1l-188 2q-27 0 -46 19t-19 46q0 21 16.5 43t34.5 22h15l100 -1l-358 483q-13 16 -13 41z" />
<glyph unicode="&#xa6;" horiz-adv-x="342" d="M100 -42v616q0 32 20.5 48t45.5 16q24 0 44 -16t20 -47v-616q0 -26 -19.5 -46t-45.5 -20q-25 0 -45 20t-20 45zM100 774v616q0 32 20.5 48t45.5 16q24 0 44 -16t20 -47v-616q0 -26 -19.5 -46t-45.5 -20q-25 0 -45 20t-20 45z" />
<glyph unicode="&#xa7;" horiz-adv-x="834" d="M98 727q0 85 38.5 146t96.5 93q-83 80 -83 194v7q0 79 41 139t95 92q62 36 130 36h5l24 -1q32 0 58 -18t26 -48q0 -27 -19.5 -47.5t-41.5 -20.5q-12 0 -24 3t-23 3q-58 0 -99.5 -42.5t-41.5 -97.5q0 -108 144 -167q56 -23 92 -39t50 -26q71 -46 120 -111.5t49 -161.5 q0 -84 -30.5 -145.5t-82.5 -103.5q61 -84 61 -183q0 -81 -42 -153q-35 -60 -101 -107t-155 -49q-8 -2 -17 -2q-27 0 -49 19.5t-22 46.5q0 68 97 68h5q64 7 108.5 58.5t44.5 122.5q0 24 -7 47q-23 86 -142 137q-4 2 -13.5 6t-24.5 10q-145 60 -201 127q-66 77 -66 168z M229 730q0 -51 32 -85t80.5 -58t98 -44t84.5 -43q34 23 60 68.5t26 101.5q0 78 -76 127q-115 74 -184 74q-51 0 -86 -42t-35 -99z" />
<glyph unicode="&#xa8;" horiz-adv-x="532" d="M2 1268q0 25 6 50q4 18 18 45.5t33.5 49t42.5 21.5q30 0 57.5 -30.5t44.5 -72.5t17 -77q0 -43 -31 -75.5t-78 -32.5q-55 0 -82.5 35.5t-27.5 86.5zM313 1260q0 25 6 50q4 18 18 45.5t33.5 49t42.5 21.5q30 0 57.5 -30.5t44.5 -72.5t17 -77q0 -43 -31 -75.5t-78 -32.5 q-55 0 -82.5 35.5t-27.5 86.5z" />
<glyph unicode="&#xa9;" horiz-adv-x="1702" d="M100 702q0 113 38 215.5t99 186t131 140.5q200 164 460 174q11 1 19.5 -1.5t15.5 -3.5q190 -10 343 -98.5t245 -207.5q150 -195 150 -429q0 -151 -58.5 -275.5t-162 -214t-239.5 -138.5t-291 -49q-71 0 -143 12t-143 38q-157 57 -279 182t-165 306q-20 83 -20 163z M231 698q0 -93 28 -174.5t68 -136.5q80 -110 212.5 -183.5t306.5 -73.5q62 0 127 11q135 22 248 92.5t182 182t69 256.5q0 125 -47.5 229t-125 181.5t-168.5 124.5q-133 69 -275 76q-9 0 -21 5q-218 -9 -391 -150t-207 -359q-6 -40 -6 -81zM388 625q0 101 40 206 q37 98 106.5 185t169 141.5t224.5 54.5q82 0 170 -27q23 -7 33.5 -23.5t10.5 -35.5q0 -25 -16.5 -46.5t-44.5 -21.5q-10 0 -20 3q-64 19 -125 19q-96 0 -172.5 -41.5t-130.5 -108t-83 -143.5q-32 -85 -32 -165q0 -123 71.5 -197t204.5 -74q115 0 271 56q11 4 23 4 q26 0 45.5 -18.5t19.5 -44.5q0 -23 -13 -40t-31 -23q-178 -65 -316 -65q-153 0 -251 72.5t-132 185.5q-22 73 -22 147z" />
<glyph unicode="&#xaa;" horiz-adv-x="893" d="M100 981q0 138 69 258q74 128 225 176q66 21 124 21q118 0 187 -70t80 -177q8 -23 -2 -57q-11 -119 -11 -211q0 -124 20 -200q2 -10 2 -19q0 -20 -19 -38.5t-43 -18.5q-31 0 -51 14q-38 27 -47 183q-112 -156 -221 -167q-28 -7 -57 -7q-85 0 -142 45t-85.5 116t-28.5 152 zM238 989q0 -200 94 -200q261 0 314 370q1 6 1 10.5t1 6.5q-13 137 -130 137h-3q-36 0 -75 -13q-101 -32 -152 -123q-50 -89 -50 -188z" />
<glyph unicode="&#xab;" horiz-adv-x="1430" d="M101 725q0 41 18 62t42 37q12 8 52.5 30t110.5 59t144 81t153 95q17 11 40 11q26 0 43.5 -21t17.5 -49q0 -31 -30 -51q-109 -71 -221.5 -133t-202.5 -110q10 -5 45.5 -22t96.5 -47q120 -59 286 -159q32 -19 32 -51q0 -28 -17.5 -49t-43.5 -21q-22 0 -38 10 q-79 48 -154.5 89.5t-146.5 75.5q-70 35 -111.5 55.5t-53.5 27.5q-62 39 -62 80zM703 719q0 41 18 62t42 37q12 8 52.5 30t110.5 59t144.5 80.5t153.5 94.5q17 11 39 11q26 0 44 -21t18 -49q0 -30 -31 -50q-160 -104 -283 -169q-61 -32 -96 -50.5t-45 -23.5 q10 -5 45.5 -22.5t96.5 -47.5q62 -30 133 -69t153 -89q33 -19 33 -51q0 -28 -17.5 -49t-43.5 -21q-25 0 -39 9q-159 96 -300 165q-70 35 -111.5 55.5t-53.5 27.5q-63 40 -63 81z" />
<glyph unicode="&#xac;" horiz-adv-x="1176" d="M100 727q0 25 19 46q33 32 46 19h844q27 -1 46 -19t19 -45l2 -389v-1q0 -27 -18.5 -46t-45.5 -19t-46.5 19t-19.5 46l-2 324h-779h-2q-26 0 -44 19.5t-19 45.5z" />
<glyph unicode="&#xad;" horiz-adv-x="0" />
<glyph unicode="&#xae;" horiz-adv-x="1700" d="M99 695q0 118 37 219t97 182t130 138q84 69 208 123t265 54l23 -5h4q191 -11 342.5 -98.5t244.5 -207.5q72 -94 111 -206t39 -228q0 -97 -28.5 -192t-89.5 -180q-62 -86 -159 -154t-218 -107.5t-255 -39.5q-70 0 -142.5 12.5t-144.5 38.5q-160 59 -280.5 184.5 t-163.5 303.5q-20 82 -20 163zM230 692q0 -64 16 -130q36 -149 135.5 -249.5t229.5 -147.5q59 -21 118 -31t118 -10q110 0 211 31t181.5 84t128.5 120q52 73 77 152.5t25 160.5q0 189 -123 349q-76 99 -205 172.5t-287 82.5q-13 1 -22 5q-171 -7 -310.5 -94.5t-213.5 -214.5 q-35 -60 -57 -130t-22 -150zM542 1091v13q0 17 19.5 34t36.5 19q126 18 223 18q142 0 222 -38q161 -77 161 -264q0 -92 -47 -160.5t-111 -97.5q-69 -32 -148 -45l353 -209q33 -19 33 -51q0 -28 -17 -49t-43 -21q-22 0 -39 9l-503 299q0 -40 0.5 -74t0.5 -61q0 -47 -1 -87 t-15.5 -64t-53.5 -24q-21 0 -42.5 17t-21.5 36q0 26 2 46.5t2 60.5q0 96 -4 339zM673 1036q3 -119 5 -192.5t2 -153.5q28 -1 54 -1q259 0 321 95q10 15 14.5 39t4.5 50q0 59 -17 91q-43 80 -240 80q-64 0 -144 -8z" />
<glyph unicode="&#xaf;" horiz-adv-x="783" d="M107 1086q0 27 19 46t46 19h441q27 0 46 -19t19 -46t-19 -46t-46 -19h-441q-27 0 -46 19t-19 46z" />
<glyph unicode="&#xb0;" horiz-adv-x="852" d="M100 1151q0 80 43.5 141t115.5 95.5t158 34.5q91 0 167 -35.5t122 -104t46 -166.5q0 -96 -67 -176q-73 -87 -226 -109q-22 -3 -44 -3q-86 0 -157.5 43.5t-114.5 116.5t-43 163zM228 1142q0 -39 18.5 -74.5t45.5 -61.5q48 -47 127 -47q151 0 196 113q9 23 9 47q0 19 -6 39 q-42 136 -190 136q-81 0 -140.5 -38t-59.5 -114z" />
<glyph unicode="&#xb1;" horiz-adv-x="1299" d="M100 689q0 26 19.5 45.5t45.5 19.5h446v427q0 26 19.5 45.5t45.5 19.5t45.5 -19.5t19.5 -45.5v-427h383q26 -1 45.5 -20t19.5 -45t-19 -45.5t-46 -19.5h-383v-394q0 -26 -19.5 -45.5t-45.5 -19.5t-45.5 19.5t-19.5 45.5v394h-446h-2q-25 0 -44 19.5t-19 45.5zM102 59 q0 27 19 46t46 19h967q27 0 46 -19t19 -46t-19 -46t-46 -19h-967q-27 0 -46 19t-19 46z" />
<glyph unicode="&#xb2;" horiz-adv-x="597" d="M100 1323q0 14 9 24q34 40 74 64t83 24t86 -26q57 -34 57 -109q0 -50 -29 -96q-42 -65 -121 -154q9 1 20 1q25 0 65.5 -6t66.5 -6q17 0 30.5 5t24.5 5q14 0 22.5 -12.5t8.5 -28.5q0 -24 -32 -32t-58 -8q-36 0 -109 15q-10 2 -21 2q-45 0 -113 -32q-7 -3 -18 -3 q-13 0 -22.5 11t-9.5 24q0 15 12 27q28 27 66.5 70t76 90t61.5 84q11 21 11 41q0 29 -20.5 49t-53.5 20q-51 0 -105 -64q-11 -13 -26 -13q-36 0 -36 34z" />
<glyph unicode="&#xb3;" horiz-adv-x="547" d="M100 1050q0 15 9.5 26.5t23.5 11.5q12 0 20 -5q105 -60 167 -60q57 0 57 46q0 22 -16 42t-41 20q-13 0 -26 -6t-28 -6q-13 0 -22.5 11.5t-9.5 25.5q0 17 15 27q65 42 84 90q10 27 10 46q0 44 -48 44q-34 0 -61.5 -17t-64.5 -52q-10 -10 -24 -10q-16 0 -25.5 11t-9.5 24 q0 15 11 25q96 92 176 92q40 0 79.5 -32t39.5 -85q0 -35 -16.5 -69.5t-35.5 -57.5q38 -15 60.5 -45t22.5 -78q0 -55 -36.5 -86t-89.5 -31q-82 0 -203 71q-18 11 -18 27z" />
<glyph unicode="&#xb4;" horiz-adv-x="215" d="M0 1179q0 22 20 56l73 166q18 33 56 33q24 0 45 -18.5t21 -47.5q0 -17 -10 -33l-115 -165q-19 -33 -43 -33q-18 0 -32.5 12t-14.5 30z" />
<glyph unicode="&#xb5;" horiz-adv-x="1228" d="M100 197q0 209 52 515q15 120 51 257q6 19 24 33t42 14q21 0 41.5 -17.5t20.5 -37.5q0 -13 -13 -70q-12 -54 -36 -190q-10 -82 -10 -155q0 -102 25.5 -196.5t80 -155t140.5 -60.5q43 0 80 13.5t77 41.5q83 59 139 166t79 236q-1 51 -1 94q0 135 6 206.5t16 95.5 q14 25 46 25q29 0 49.5 -15.5t22.5 -42.5q8 -85 8 -163q0 -111 -16 -210q6 -399 68 -479v-2q36 -18 36 -52q0 -28 -17 -49.5t-43 -21.5q-118 0 -155 289q-38 -64 -95.5 -124.5t-131 -99t-161.5 -38.5q-89 0 -164.5 44.5t-125.5 119.5q5 -165 38 -248q5 -13 5 -32 q0 -21 -19.5 -39.5t-40.5 -18.5q-33 0 -48 18t-27 49q-43 110 -43 300z" />
<glyph unicode="&#xb6;" horiz-adv-x="1053" d="M100 1044q0 60 31.5 119.5t81 110t107.5 81t112 32.5l342 10q41 1 74 -16t57 -35q36 -33 44 -81t5 -107t-1 -125q4 -166 -9 -332t-28 -319l-24 -327q-2 -29 -25.5 -43t-46.5 -14q-25 0 -45.5 15.5t-20.5 45.5l16 168l16 168q-1 130 3.5 272.5t1.5 283.5t-25 267l-151 1 q-5 -129 -1 -277.5t6 -293.5t-10 -264l-32 -327q-2 -28 -22 -42t-43 -14q-24 0 -44.5 15.5t-20.5 45.5v3v4l16 692q-115 -18 -196.5 22.5t-124.5 112t-43 148.5z" />
<glyph unicode="&#xb7;" horiz-adv-x="421" d="M101 726q0 24 6 49q4 18 18 45.5t34 48.5t42 21q31 0 58.5 -30.5t44.5 -72.5t17 -77q0 -43 -30.5 -75t-78.5 -32q-55 0 -83 36t-28 87z" />
<glyph unicode="&#xb8;" horiz-adv-x="674" d="M99 -506q0 28 18 49t44 21q23 0 51 -18q19 -12 53 -25.5t69 -13.5q37 0 63.5 19t38.5 41q9 18 9 31q0 19 -17 27t-43 8q-18 0 -35 -3t-38 -3q-16 0 -35 19t-19 35q0 8 0.5 13t0.5 7l25 176q8 57 71 57q19 0 39 -18.5t20 -36.5q0 -17 -1 -20l-14 -98q79 -5 127 -48.5 t48 -118.5q0 -46 -20 -85q-28 -53 -88 -91t-143 -38q-92 0 -192 63q-32 20 -32 51z" />
<glyph unicode="&#xb9;" horiz-adv-x="309" d="M100 1398q0 13 10.5 26t26.5 13t30 -11t19 -19q25 -36 25 -144q0 -74 -12 -183l-3 -25q-1 -13 -11.5 -22t-24.5 -9q-11 0 -22.5 9t-11.5 19q0 9 6 54q2 19 4.5 61t2.5 85q0 36 -2 67t-7 45q-11 2 -20.5 12t-9.5 22z" />
<glyph unicode="&#xba;" horiz-adv-x="658" d="M100 1290q0 88 63.5 148t159.5 60q99 0 167 -62.5t68 -172.5q0 -90 -59 -145.5t-146 -69.5q-16 -2 -31 -2q-62 0 -112 33.5t-80 89t-30 121.5zM192 1285q0 -54 36.5 -97t95.5 -43q105 0 138 86q6 16 6 35q0 15 -4 31q-29 103 -133 103q-61 0 -100 -28.5t-39 -86.5z" />
<glyph unicode="&#xbb;" horiz-adv-x="1527" d="M100 451q0 32 32 51q82 50 154 89t133 69q62 30 97 47.5l45 22.5q-10 5 -45 23.5t-96 50.5t-132 74.5t-152 94.5q-30 20 -30 50q0 28 17.5 49t43.5 21q23 0 40 -11q79 -51 153 -94.5t144 -80.5t110.5 -59t52.5 -30q24 -16 42.5 -37t18.5 -62t-63 -81q-12 -7 -53 -27.5 t-112 -55.5q-70 -34 -145.5 -75.5t-155.5 -89.5q-14 -9 -38 -9q-26 0 -43.5 21t-17.5 49zM702 457q0 32 33 51q166 100 286 159q62 30 97 47t45 22q-90 49 -202.5 110.5t-221.5 132.5q-31 20 -31 51q0 28 18 49t44 21q22 0 39 -11q79 -51 153 -95t144 -81q138 -72 164 -89 q24 -16 42 -37t18 -62q0 -40 -63 -80q-12 -7 -53 -27.5t-112 -55.5q-141 -69 -300 -165q-16 -10 -39 -10q-26 0 -43.5 21t-17.5 49z" />
<glyph unicode="&#xbc;" horiz-adv-x="1283" d="M99 1235q0 19 21.5 26.5t40.5 7.5q81 0 109.5 -47t37.5 -121q8 -67 8 -136q0 -89 -14 -182l-25 -160q-2 -14 -17.5 -21t-33.5 -7q-20 0 -37 8.5t-14 25.5l26 160q14 90 14 177q0 51 -6.5 117.5t-23.5 95.5q-17 26 -20 26q-5 -1 -12 -1q-18 0 -36 8.5t-18 22.5zM156 198 l491 1129q12 28 37 28q19 0 34 -14.5t15 -35.5q0 -11 -4 -21l-492 -1129q-12 -27 -41 -27q-22 0 -36.5 21t-3.5 49zM416 413q0 24 9 45t23 39q46 59 74 94t46 58.5t34 47t37.5 58t56.5 91.5q22 35 44 19q27 -19 27 -42q0 -11 -7 -23q-35 -57 -57 -92t-40.5 -61t-41 -55.5 t-59.5 -76.5q-30 -38 -45 -58.5t-17 -22.5q21 -5 52 -5q14 0 47.5 4t71.5 8.5t66 8t30 3.5v215q0 17 11.5 29t27.5 12q17 0 27.5 -12t10.5 -29v-204q150 20 219 20q54 0 87 -24t33 -61q0 -20 -12.5 -30.5t-27.5 -10.5q-30 0 -36 32q-16 8 -62 8q-68 0 -201 -18v-323 q0 -16 -10.5 -29t-27.5 -13q-16 0 -27.5 13t-11.5 29v312q-3 0 -33 -4t-69.5 -8.5t-73 -8.5t-43.5 -4q-49 0 -90.5 16t-41.5 53z" />
<glyph unicode="&#xbd;" horiz-adv-x="1210" d="M99 1235q0 19 21.5 26.5t40.5 7.5q81 0 109.5 -47t37.5 -121q8 -67 8 -136q0 -89 -14 -182l-25 -160q-2 -14 -17.5 -21t-33.5 -7q-20 0 -37 8.5t-14 25.5l26 160q14 90 14 177q0 51 -6.5 117.5t-23.5 95.5q-17 26 -20 26q-5 -1 -12 -1q-18 0 -36 8.5t-18 22.5zM156 198 l491 1129q12 28 37 28q19 0 34 -14.5t15 -35.5q0 -11 -4 -21l-492 -1129q-12 -27 -41 -27q-22 0 -36.5 21t-3.5 49zM479 536q0 10 10 20q60 62 117.5 92t127.5 30q93 0 161 -48.5t68 -134.5q0 -58 -34 -106q-45 -64 -110 -135.5t-150 -151.5q40 7 88 7t113 -8.5t111 -8.5 q41 0 66 7q16 5 28 5q26 0 33 -21q10 -30 -25 -40q-56 -16 -104 -16q-44 0 -103 11.5t-122 11.5q-85 0 -179 -39q-43 -18 -57 -6q-29 26 -4 48l24 20q196 166 331 350q22 33 22 68q0 56 -45 90t-107 34q-57 0 -100.5 -23.5t-94.5 -76.5q-10 -10 -26 -10q-15 0 -27 9t-12 22z " />
<glyph unicode="&#xbe;" horiz-adv-x="1725" d="M101 667q0 16 12 30t30 14q10 0 21 -6q213 -121 349 -121q61 0 100.5 28t39.5 81q0 65 -42 110t-103 45q-39 0 -82 -20q-9 -4 -19 -4q-17 0 -29 13t-12 29q0 21 19 33q48 31 83 63q98 90 114 186q3 16 3 32q0 54 -32.5 87t-87.5 33q-68 0 -134.5 -37.5t-140.5 -106.5 q-12 -12 -29 -12q-19 0 -30 13t-11 29q0 17 12 29q166 154 311 166q11 1 22 1q90 0 147 -57t57 -146q0 -22 -4 -45q-18 -109 -114 -208q66 -12 109.5 -55.5t63.5 -102.5q13 -37 13 -72q0 -96 -64.5 -144.5t-160.5 -48.5q-156 0 -391 132q-20 11 -20 32zM598 198l491 1129 q12 28 37 28q19 0 34 -14.5t15 -35.5q0 -11 -4 -21l-492 -1129q-12 -27 -41 -27q-22 0 -36.5 21t-3.5 49zM858 413q0 24 9 45t23 39q46 59 74 94t46 58.5t34 47t37.5 58t56.5 91.5q22 35 44 19q27 -19 27 -42q0 -11 -7 -23q-35 -57 -57 -92t-40.5 -61t-41 -55.5t-59.5 -76.5 q-30 -38 -45 -58.5t-17 -22.5q21 -5 52 -5q14 0 47.5 4t71.5 8.5t66 8t30 3.5v215q0 17 11.5 29t27.5 12q17 0 27.5 -12t10.5 -29v-204q150 20 219 20q54 0 87 -24t33 -61q0 -20 -12.5 -30.5t-27.5 -10.5q-30 0 -36 32q-16 8 -62 8q-68 0 -201 -18v-323q0 -16 -10.5 -29 t-27.5 -13q-16 0 -27.5 13t-11.5 29v312q-3 0 -33 -4t-69.5 -8.5t-73 -8.5t-43.5 -4q-49 0 -90.5 16t-41.5 53z" />
<glyph unicode="&#xbf;" horiz-adv-x="984" d="M100 36q0 116 173 284q94 90 129 154q31 55 31 117q0 60 -25 114.5t-63 96.5q-17 19 -17 42q0 26 21 46t47 20t45 -21q55 -62 87.5 -137t32.5 -156q0 -121 -53.5 -201t-131.5 -156q-92 -89 -136 -162q-21 -28 -14 -48q10 -28 54.5 -52.5t97.5 -42t88 -25.5 q62 -15 112 -15q73 0 125 34t52 110q0 42 -17 98q-3 11 -3 21q0 28 21 44.5t46 16.5q19 0 36 -11t24 -34q23 -75 23 -137q0 -87 -42.5 -147.5t-112 -92t-151.5 -31.5q-68 0 -148 19q-276 65 -324 206q-7 22 -7 46zM272 1162q0 47 24.5 87t75.5 40q49 0 78.5 -43.5 t29.5 -95.5q0 -48 -28.5 -87t-72.5 -39q-49 0 -78 44t-29 94z" />
<glyph unicode="&#xc0;" d="M100 24q36 483 155 869q119 384 284 509q68 51 132 51q182 0 341 -402q139 -353 242 -926l16 -88q1 -6 1 -11q0 -30 -21.5 -46.5t-46.5 -16.5q-21 0 -39 12.5t-23 39.5l-15 87q-23 129 -48 246.5t-52 223.5h-717q-59 -292 -79 -552q-2 -26 -22 -42.5t-45 -16.5 q-23 0 -44 19.5t-19 43.5zM338 702h654q-112 399 -232 550q-28 36 -56 52q-26 14 -38 13q-64 -8 -126 -101q-120 -180 -202 -514zM683 1656q0 29 21 47.5t45 18.5q39 0 57 -33l73 -166q20 -34 20 -56q0 -18 -14.5 -30t-32.5 -12q-24 0 -43 33l-116 165q-10 16 -10 33z" />
<glyph unicode="&#xc1;" d="M100 24q36 483 155 869q119 384 284 509q68 51 132 51q182 0 341 -402q139 -353 242 -926l16 -88q1 -6 1 -11q0 -30 -21.5 -46.5t-46.5 -16.5q-21 0 -39 12.5t-23 39.5l-15 87q-23 129 -48 246.5t-52 223.5h-717q-59 -292 -79 -552q-2 -26 -22 -42.5t-45 -16.5 q-23 0 -44 19.5t-19 43.5zM338 702h654q-112 399 -232 550q-28 36 -56 52q-26 14 -38 13q-64 -8 -126 -101q-120 -180 -202 -514zM465 1479q0 22 20 56l73 166q18 33 56 33q24 0 45 -18.5t21 -47.5q0 -17 -10 -33l-115 -165q-19 -33 -43 -33q-18 0 -32.5 12t-14.5 30z" />
<glyph unicode="&#xc2;" d="M100 24q36 483 155 869q119 384 284 509q68 51 132 51q182 0 341 -402q139 -353 242 -926l16 -88q1 -6 1 -11q0 -30 -21.5 -46.5t-46.5 -16.5q-21 0 -39 12.5t-23 39.5l-15 87q-23 129 -48 246.5t-52 223.5h-717q-59 -292 -79 -552q-2 -26 -22 -42.5t-45 -16.5 q-23 0 -44 19.5t-19 43.5zM312 1432q0 26 20 45l291 273q19 18 45 18q28 0 47 -19l271 -278q20 -20 20 -44q0 -26 -21.5 -46.5t-47.5 -20.5q-25 0 -44 20l-226 232l-245 -229q-20 -19 -44 -19q-26 0 -46 21t-20 47zM338 702h654q-112 399 -232 550q-28 36 -56 52 q-26 14 -38 13q-64 -8 -126 -101q-120 -180 -202 -514z" />
<glyph unicode="&#xc3;" d="M100 24q36 483 155 869q119 384 284 509q68 51 132 51q182 0 341 -402q139 -353 242 -926l16 -88q1 -6 1 -11q0 -30 -21.5 -46.5t-46.5 -16.5q-21 0 -39 12.5t-23 39.5l-15 87q-23 129 -48 246.5t-52 223.5h-717q-59 -292 -79 -552q-2 -26 -22 -42.5t-45 -16.5 q-23 0 -44 19.5t-19 43.5zM282 1480q0 21 4 30q26 72 94.5 127.5t163.5 55.5q93 0 195 -64q44 -28 74 -45.5t46 -24.5q32 -13 61 -13q38 0 70.5 26t37.5 59q5 27 22 45.5t46 18.5q21 0 42 -17t21 -37q0 -96 -74 -160t-163 -64q-91 0 -198 67q-38 24 -82.5 51.5t-94.5 27.5 q-49 0 -87 -29.5t-52 -67.5q-6 -17 -24 -30.5t-41 -13.5q-21 0 -41 19t-20 39zM338 702h654q-112 399 -232 550q-28 36 -56 52q-26 14 -38 13q-64 -8 -126 -101q-120 -180 -202 -514z" />
<glyph unicode="&#xc4;" d="M100 24q36 483 155 869q119 384 284 509q68 51 132 51q182 0 341 -402q139 -353 242 -926l16 -88q1 -6 1 -11q0 -30 -21.5 -46.5t-46.5 -16.5q-21 0 -39 12.5t-23 39.5l-15 87q-23 129 -48 246.5t-52 223.5h-717q-59 -292 -79 -552q-2 -26 -22 -42.5t-45 -16.5 q-23 0 -44 19.5t-19 43.5zM338 702h654q-112 399 -232 550q-28 36 -56 52q-26 14 -38 13q-64 -8 -126 -101q-120 -180 -202 -514zM392 1590q0 25 6 50q4 18 18 45.5t33.5 48.5t41.5 21q31 0 58.5 -30.5t44.5 -72.5t17 -77q0 -45 -30.5 -76t-78.5 -31q-55 0 -82.5 35.5 t-27.5 86.5zM703 1582q0 25 6 50q4 18 18 45.5t33.5 48.5t41.5 21q31 0 58.5 -30.5t44.5 -72.5t17 -77q0 -45 -30.5 -76t-78.5 -31q-55 0 -82.5 35.5t-27.5 86.5z" />
<glyph unicode="&#xc5;" d="M100 24q36 483 155 869q119 384 284 509q68 51 132 51q182 0 341 -402q139 -353 242 -926l16 -88q1 -6 1 -11q0 -30 -21.5 -46.5t-46.5 -16.5q-21 0 -39 12.5t-23 39.5l-15 87q-23 129 -48 246.5t-52 223.5h-717q-59 -292 -79 -552q-2 -26 -22 -42.5t-45 -16.5 q-23 0 -44 19.5t-19 43.5zM338 702h654q-112 399 -232 550q-28 36 -56 52q-26 14 -38 13q-64 -8 -126 -101q-120 -180 -202 -514zM453 1706q0 88 63.5 148t159.5 60q99 0 167 -62.5t68 -172.5q0 -90 -59 -145.5t-146 -69.5q-16 -2 -31 -2q-62 0 -112 33.5t-80 89t-30 121.5z M544 1701q0 -53 37 -96.5t96 -43.5q105 0 138 86q6 16 6 35q0 15 -4 31q-29 103 -133 103q-61 0 -100.5 -28.5t-39.5 -86.5z" />
<glyph unicode="&#xc6;" horiz-adv-x="2201" d="M100 47v6q80 314 249 644q295 564 706 723q146 16 319 16q161 0 346 -14q166 -12 311 -62q22 -3 46.5 -22t24.5 -46q0 -26 -21.5 -43t-44.5 -17q-20 0 -42 7.5t-42 16.5q-127 32 -254.5 44t-266.5 12q-67 0 -138 -2t-147 -5q3 -103 4 -205t1 -204v-117q23 0 84 -1t140 -2 t157.5 -1.5t138.5 -1t80 -0.5q22 0 42.5 0.5t39.5 0.5q44 0 76 -10t32 -49q0 -24 -17 -42t-39 -20l-735 4q-3 -292 -15 -528q319 1 494.5 3.5t208.5 5.5q34 3 54.5 6t38.5 3q28 0 68 -10q31 -14 31 -50q0 -21 -12.5 -39.5t-35.5 -21.5q-216 -17 -529 -18q-123 0 -191 -1 t-105 -1.5t-68 -0.5h-4q-81 0 -91 54q8 182 12 318t5 226l-561 6q-50 -98 -84 -177t-60 -154t-54 -163q-10 -33 -18 -58.5t-15 -44.5q-17 -28 -49 -28q-26 0 -48 18t-22 45zM521 738l246 -2t245 -3v123q0 99 -1 199.5t-3 200.5q-267 -149 -487 -518z" />
<glyph unicode="&#xc7;" d="M101 592q0 163 62 302.5t161 246t209 171.5q213 125 463 125q101 0 208 -20q24 -5 38 -24t14 -42q0 -26 -22.5 -46.5t-53.5 -14.5q-93 18 -181 18q-217 0 -401 -108q-92 -54 -176 -144.5t-138 -208t-54 -252.5q0 -163 77 -270.5t209.5 -160.5t299.5 -53q166 0 374 49 q8 2 16 2q29 0 46 -21.5t17 -46.5q0 -20 -12 -37t-37 -23q-80 -19 -155.5 -31.5t-145.5 -17.5v-10q0 -10 -1 -13l-14 -98q79 -5 127 -48.5t48 -118.5q0 -46 -20 -85q-28 -53 -88 -91t-143 -38q-92 0 -192 63q-31 19 -31 51q0 28 17.5 49t43.5 21q23 0 51 -18 q19 -12 53 -25.5t69 -13.5q37 0 63.5 19t38.5 41q9 18 9 31q0 19 -17 27t-43 8q-18 0 -34.5 -3t-37.5 -3q-16 0 -35.5 19t-19.5 35q0 8 0.5 13t0.5 7l26 176v1q-196 4 -352 75t-246.5 206t-90.5 330z" />
<glyph unicode="&#xc8;" horiz-adv-x="1298" d="M100 67q0 11 2 68.5t5 143.5t6 182.5t5 187t2 157.5q0 125 -3.5 263.5t-3.5 289.5q0 25 18.5 44t42.5 20l72 5q86 5 178 6t190 -2q385 -12 546 -84q38 -17 37 -63q0 -25 -16.5 -43.5t-44.5 -18.5q-14 0 -29 7q-166 73 -615 73q-63 0 -132 -1.5t-116 -4.5q6 -288 6 -518 l725 -5q31 0 46.5 -20.5t15.5 -44.5q0 -25 -15.5 -45t-47.5 -20l-725 5q-1 -133 -4 -239t-7 -185l-5 -96q328 1 535.5 5.5t296.5 11.5q30 3 46 -19.5t16 -46.5q0 -23 -14 -42.5t-43 -21.5q-98 -9 -324.5 -13t-580.5 -4q-25 0 -45 20t-20 48zM665 1662q0 29 21 47.5t45 18.5 q39 0 57 -33l73 -166q20 -34 20 -56q0 -18 -14.5 -30t-32.5 -12q-24 0 -43 33l-116 165q-10 16 -10 33z" />
<glyph unicode="&#xc9;" horiz-adv-x="1298" d="M100 67q0 11 2 68.5t5 143.5t6 182.5t5 187t2 157.5q0 125 -3.5 263.5t-3.5 289.5q0 25 18.5 44t42.5 20l72 5q86 5 178 6t190 -2q385 -12 546 -84q38 -17 37 -63q0 -25 -16.5 -43.5t-44.5 -18.5q-14 0 -29 7q-166 73 -615 73q-63 0 -132 -1.5t-116 -4.5q6 -288 6 -518 l725 -5q31 0 46.5 -20.5t15.5 -44.5q0 -25 -15.5 -45t-47.5 -20l-725 5q-1 -133 -4 -239t-7 -185l-5 -96q328 1 535.5 5.5t296.5 11.5q30 3 46 -19.5t16 -46.5q0 -23 -14 -42.5t-43 -21.5q-98 -9 -324.5 -13t-580.5 -4q-25 0 -45 20t-20 48zM357 1506q0 22 20 56l73 166 q18 33 56 33q24 0 45 -18.5t21 -47.5q0 -17 -10 -33l-115 -165q-19 -33 -43 -33q-18 0 -32.5 12t-14.5 30z" />
<glyph unicode="&#xca;" horiz-adv-x="1298" d="M100 67q0 11 2 68.5t5 143.5t6 182.5t5 187t2 157.5q0 125 -3.5 263.5t-3.5 289.5q0 25 18.5 44t42.5 20l72 5q86 5 178 6t190 -2q385 -12 546 -84q38 -17 37 -63q0 -25 -16.5 -43.5t-44.5 -18.5q-14 0 -29 7q-166 73 -615 73q-63 0 -132 -1.5t-116 -4.5q6 -288 6 -518 l725 -5q31 0 46.5 -20.5t15.5 -44.5q0 -25 -15.5 -45t-47.5 -20l-725 5q-1 -133 -4 -239t-7 -185l-5 -96q328 1 535.5 5.5t296.5 11.5q30 3 46 -19.5t16 -46.5q0 -23 -14 -42.5t-43 -21.5q-98 -9 -324.5 -13t-580.5 -4q-25 0 -45 20t-20 48zM261 1522q0 26 20 45l291 273 q19 18 45 18q28 0 47 -19l271 -278q20 -20 20 -44q0 -26 -21.5 -46.5t-47.5 -20.5q-25 0 -44 20l-226 232l-245 -229q-20 -19 -44 -19q-26 0 -46 21t-20 47z" />
<glyph unicode="&#xcb;" horiz-adv-x="1298" d="M100 67q0 11 2 68.5t5 143.5t6 182.5t5 187t2 157.5q0 125 -3.5 263.5t-3.5 289.5q0 25 18.5 44t42.5 20l72 5q86 5 178 6t190 -2q385 -12 546 -84q38 -17 37 -63q0 -25 -16.5 -43.5t-44.5 -18.5q-14 0 -29 7q-166 73 -615 73q-63 0 -132 -1.5t-116 -4.5q6 -288 6 -518 l725 -5q31 0 46.5 -20.5t15.5 -44.5q0 -25 -15.5 -45t-47.5 -20l-725 5q-1 -133 -4 -239t-7 -185l-5 -96q328 1 535.5 5.5t296.5 11.5q30 3 46 -19.5t16 -46.5q0 -23 -14 -42.5t-43 -21.5q-98 -9 -324.5 -13t-580.5 -4q-25 0 -45 20t-20 48zM362 1596q0 25 6 50 q4 18 18 45.5t33.5 48.5t41.5 21q31 0 58.5 -30.5t44.5 -72.5t17 -77q0 -45 -30.5 -76t-78.5 -31q-55 0 -82.5 35.5t-27.5 86.5zM673 1588q0 25 6 50q4 18 18 45.5t33.5 48.5t41.5 21q31 0 58.5 -30.5t44.5 -72.5t17 -77q0 -45 -30.5 -76t-78.5 -31q-55 0 -82.5 35.5 t-27.5 86.5z" />
<glyph unicode="&#xcc;" horiz-adv-x="342" d="M95 1674q0 29 21 47.5t45 18.5q39 0 57 -33l73 -166q20 -34 20 -56q0 -18 -14.5 -30t-32.5 -12q-24 0 -43 33l-116 165q-10 16 -10 33zM100 1390q0 26 20.5 46t46.5 20q24 0 43.5 -20t19.5 -45l13 -1353q0 -32 -20.5 -48t-45.5 -16q-24 0 -44 15.5t-20 46.5z" />
<glyph unicode="&#xcd;" horiz-adv-x="342" d="M9 1515q0 22 20 56l73 166q18 33 56 33q24 0 45 -18.5t21 -47.5q0 -17 -10 -33l-115 -165q-19 -33 -43 -33q-18 0 -32.5 12t-14.5 30zM100 1390q0 26 20.5 46t46.5 20q24 0 43.5 -20t19.5 -45l13 -1353q0 -32 -20.5 -48t-45.5 -16q-24 0 -44 15.5t-20 46.5z" />
<glyph unicode="&#xce;" horiz-adv-x="342" d="M-183 1357q0 26 20 45l291 273q19 18 45 18q28 0 47 -19l271 -278q20 -20 20 -44q0 -26 -21.5 -46.5t-47.5 -20.5q-25 0 -44 20l-226 232l-245 -229q-20 -19 -44 -19q-26 0 -46 21t-20 47zM100 1390q0 26 20.5 46t46.5 20q24 0 43.5 -20t19.5 -45l13 -1353 q0 -32 -20.5 -48t-45.5 -16q-24 0 -44 15.5t-20 46.5z" />
<glyph unicode="&#xcf;" horiz-adv-x="342" d="M-91 1592q0 25 6 50q4 18 18 45.5t33.5 49t42.5 21.5q30 0 57.5 -30.5t44.5 -72.5t17 -77q0 -43 -31 -75.5t-78 -32.5q-55 0 -82.5 35.5t-27.5 86.5zM100 1390q0 26 20.5 46t46.5 20q24 0 43.5 -20t19.5 -45l13 -1353q0 -32 -20.5 -48t-45.5 -16q-24 0 -44 15.5t-20 46.5 zM220 1584q0 25 6 50q4 18 18 45.5t33.5 49t42.5 21.5q30 0 57.5 -30.5t44.5 -72.5t17 -77q0 -43 -31 -75.5t-78 -32.5q-55 0 -82.5 35.5t-27.5 86.5z" />
<glyph unicode="&#xd0;" horiz-adv-x="1093" d="M-148 830q0 27 19 46t46 19h184l-1 471q0 24 15.5 42t35.5 22q74 16 145 16q183 0 348 -108q88 -58 168 -155t130.5 -222t50.5 -268q0 -66 -12 -131q-34 -178 -145 -298.5t-280.5 -188t-379.5 -85.5h-5q-25 0 -44.5 19.5t-20.5 43.5l-4 712h-185q-27 0 -46 19t-19 46z M230 1312l1 -417h127q27 0 46 -19t19 -46t-19 -46t-46 -19h-126l4 -638q153 19 283.5 74t218.5 148t113 226q11 58 11 116q0 121 -42 225.5t-109.5 185.5t-143.5 131q-128 83 -273 83q-31 0 -64 -4z" />
<glyph unicode="&#xd1;" horiz-adv-x="1264" d="M100 1369q-1 30 20 48t46 18q33 0 52 -27l809 -1165l-36 1153q-1 32 19.5 48.5t45.5 16.5q24 0 44 -15t21 -46l43 -1372q1 -31 -20 -48.5t-46 -17.5q-33 0 -52 27l-810 1166l32 -1121q1 -27 -20 -47t-47 -20q-24 0 -43.5 19t-19.5 44zM201 1492q0 21 4 30 q26 72 94.5 127.5t163.5 55.5q93 0 195 -64q44 -28 74 -45.5t46 -24.5q32 -13 61 -13q38 0 70.5 26t37.5 59q5 27 22 45.5t46 18.5q21 0 42 -17t21 -37q0 -96 -74 -160t-163 -64q-91 0 -198 67q-38 24 -82.5 51.5t-94.5 27.5q-49 0 -87 -29.5t-52 -67.5q-6 -17 -24 -30.5 t-41 -13.5q-21 0 -41 19t-20 39z" />
<glyph unicode="&#xd2;" horiz-adv-x="1702" d="M100 702q0 113 38 215.5t99 186t131 140.5q200 164 460 174q11 1 19.5 -1.5t15.5 -3.5q190 -10 343 -98.5t245 -207.5q150 -195 150 -429q0 -151 -58.5 -275.5t-162 -214t-239.5 -138.5t-291 -49q-71 0 -143 12t-143 38q-157 57 -279 182t-165 306q-20 83 -20 163z M231 698q0 -93 28 -174.5t68 -136.5q80 -110 212.5 -183.5t306.5 -73.5q62 0 127 11q135 22 248 92.5t182 182t69 256.5q0 125 -47.5 229t-125 181.5t-168.5 124.5q-133 69 -275 76q-9 0 -21 5q-218 -9 -391 -150t-207 -359q-6 -40 -6 -81zM860 1662q0 29 21 47.5t45 18.5 q39 0 57 -33l73 -166q20 -34 20 -56q0 -18 -14.5 -30t-32.5 -12q-24 0 -43 33l-116 165q-10 16 -10 33z" />
<glyph unicode="&#xd3;" horiz-adv-x="1702" d="M100 702q0 113 38 215.5t99 186t131 140.5q200 164 460 174q11 1 19.5 -1.5t15.5 -3.5q190 -10 343 -98.5t245 -207.5q150 -195 150 -429q0 -151 -58.5 -275.5t-162 -214t-239.5 -138.5t-291 -49q-71 0 -143 12t-143 38q-157 57 -279 182t-165 306q-20 83 -20 163z M231 698q0 -93 28 -174.5t68 -136.5q80 -110 212.5 -183.5t306.5 -73.5q62 0 127 11q135 22 248 92.5t182 182t69 256.5q0 125 -47.5 229t-125 181.5t-168.5 124.5q-133 69 -275 76q-9 0 -21 5q-218 -9 -391 -150t-207 -359q-6 -40 -6 -81zM693 1476q0 22 20 56l73 166 q18 33 56 33q24 0 45 -18.5t21 -47.5q0 -17 -10 -33l-115 -165q-19 -33 -43 -33q-18 0 -32.5 12t-14.5 30z" />
<glyph unicode="&#xd4;" horiz-adv-x="1702" d="M100 702q0 113 38 215.5t99 186t131 140.5q200 164 460 174q11 1 19.5 -1.5t15.5 -3.5q190 -10 343 -98.5t245 -207.5q150 -195 150 -429q0 -151 -58.5 -275.5t-162 -214t-239.5 -138.5t-291 -49q-71 0 -143 12t-143 38q-157 57 -279 182t-165 306q-20 83 -20 163z M231 698q0 -93 28 -174.5t68 -136.5q80 -110 212.5 -183.5t306.5 -73.5q62 0 127 11q135 22 248 92.5t182 182t69 256.5q0 125 -47.5 229t-125 181.5t-168.5 124.5q-133 69 -275 76q-9 0 -21 5q-218 -9 -391 -150t-207 -359q-6 -40 -6 -81zM498 1447q0 26 20 45l291 273 q19 18 45 18q28 0 47 -19l271 -278q20 -20 20 -44q0 -26 -21.5 -46.5t-47.5 -20.5q-25 0 -44 20l-226 232l-245 -229q-20 -19 -44 -19q-26 0 -46 21t-20 47z" />
<glyph unicode="&#xd5;" horiz-adv-x="1702" d="M100 702q0 113 38 215.5t99 186t131 140.5q200 164 460 174q11 1 19.5 -1.5t15.5 -3.5q190 -10 343 -98.5t245 -207.5q150 -195 150 -429q0 -151 -58.5 -275.5t-162 -214t-239.5 -138.5t-291 -49q-71 0 -143 12t-143 38q-157 57 -279 182t-165 306q-20 83 -20 163z M231 698q0 -93 28 -174.5t68 -136.5q80 -110 212.5 -183.5t306.5 -73.5q62 0 127 11q135 22 248 92.5t182 182t69 256.5q0 125 -47.5 229t-125 181.5t-168.5 124.5q-133 69 -275 76q-9 0 -21 5q-218 -9 -391 -150t-207 -359q-6 -40 -6 -81zM384 1495q0 21 4 30 q26 72 94.5 127.5t163.5 55.5q93 0 195 -64q44 -28 74 -45.5t46 -24.5q32 -13 61 -13q38 0 70.5 26t37.5 59q5 27 22 45.5t46 18.5q21 0 42 -17t21 -37q0 -96 -74 -160t-163 -64q-91 0 -198 67q-38 24 -82.5 51.5t-94.5 27.5q-49 0 -87 -29.5t-52 -67.5q-6 -17 -24 -30.5 t-41 -13.5q-21 0 -41 19t-20 39z" />
<glyph unicode="&#xd6;" horiz-adv-x="1702" d="M100 702q0 113 38 215.5t99 186t131 140.5q200 164 460 174q11 1 19.5 -1.5t15.5 -3.5q190 -10 343 -98.5t245 -207.5q150 -195 150 -429q0 -151 -58.5 -275.5t-162 -214t-239.5 -138.5t-291 -49q-71 0 -143 12t-143 38q-157 57 -279 182t-165 306q-20 83 -20 163z M231 698q0 -93 28 -174.5t68 -136.5q80 -110 212.5 -183.5t306.5 -73.5q62 0 127 11q135 22 248 92.5t182 182t69 256.5q0 125 -47.5 229t-125 181.5t-168.5 124.5q-133 69 -275 76q-9 0 -21 5q-218 -9 -391 -150t-207 -359q-6 -40 -6 -81zM572 1568q0 25 6 50q4 18 18 45.5 t33.5 49t42.5 21.5q30 0 57.5 -30.5t44.5 -72.5t17 -77q0 -43 -31 -75.5t-78 -32.5q-55 0 -82.5 35.5t-27.5 86.5zM883 1560q0 25 6 50q4 18 18 45.5t33.5 49t42.5 21.5q30 0 57.5 -30.5t44.5 -72.5t17 -77q0 -43 -31 -75.5t-78 -32.5q-55 0 -82.5 35.5t-27.5 86.5z" />
<glyph unicode="&#xd7;" horiz-adv-x="1076" d="M102 922q0 25 16.5 44.5t44.5 19.5h6q18 0 32 -11l317 -244l271 259q18 18 41 18q26 0 46 -21t20 -47t-21 -46l-254 -243l327 -252q27 -21 27 -55q0 -21 -12.5 -39t-37.5 -23q-30 -6 -49 9l-349 269l-285 -272q-17 -16 -42 -16q-26 0 -45.5 18.5t-19.5 44.5q0 28 21 49 l267 256l-294 227q-27 21 -27 55z" />
<glyph unicode="&#xd8;" horiz-adv-x="1702" d="M100 702q0 113 38 215.5t99 186t131 140.5q200 164 460 174q11 1 19.5 -1.5t15.5 -3.5q197 -10 373 -116l79 92q14 16 26.5 26.5t30.5 10.5q25 0 47.5 -20t22.5 -49q0 -13 -9 -23l-94 -110q62 -51 112 -117q150 -195 150 -429q0 -151 -58.5 -275.5t-162 -214 t-239.5 -138.5t-291 -49q-130 0 -251 40t-205 98l-94 -108q-14 -16 -26.5 -27t-29.5 -11q-26 0 -48 20.5t-22 49.5q0 14 9 24l116 133q-135 135 -179 319q-20 83 -20 163zM231 704q0 -87 24 -169t57 -128q44 -59 72 -89l765 879q-138 77 -293 86q-9 0 -21 5 q-119 -5 -227 -50t-193 -123t-134.5 -182.5t-49.5 -228.5zM480 238q71 -48 169.5 -77.5t206.5 -29.5q60 0 117 10q135 22 248 92.5t182 182t69 256.5q0 104 -31.5 190.5t-92.5 165.5q-42 54 -95 98z" />
<glyph unicode="&#xd9;" d="M100 1146q0 111 3 234q1 26 21.5 44.5t45.5 18.5t44 -20t19 -47q-3 -130 -3 -244q0 -396 41 -604q54 -272 152 -347q92 -70 240 -70q139 0 231 56.5t146.5 157t77.5 232.5t23 283q0 230 -55 543q-1 6 -1 12q0 30 21.5 46.5t46.5 16.5q21 0 38.5 -12.5t22.5 -39.5 q56 -323 56 -574q0 -530 -252 -738q-66 -55 -158 -85t-195 -30q-176 0 -279 67t-157.5 185.5t-84.5 270.5q-44 228 -44 644zM584 1665q0 29 21 47.5t45 18.5q39 0 57 -33l73 -166q20 -34 20 -56q0 -18 -14.5 -30t-32.5 -12q-24 0 -43 33l-116 165q-10 16 -10 33z" />
<glyph unicode="&#xda;" d="M100 1146q0 111 3 234q1 26 21.5 44.5t45.5 18.5t44 -20t19 -47q-3 -130 -3 -244q0 -396 41 -604q54 -272 152 -347q92 -70 240 -70q139 0 231 56.5t146.5 157t77.5 232.5t23 283q0 230 -55 543q-1 6 -1 12q0 30 21.5 46.5t46.5 16.5q21 0 38.5 -12.5t22.5 -39.5 q56 -323 56 -574q0 -530 -252 -738q-66 -55 -158 -85t-195 -30q-176 0 -279 67t-157.5 185.5t-84.5 270.5q-44 228 -44 644zM357 1476q0 22 20 56l73 166q18 33 56 33q24 0 45 -18.5t21 -47.5q0 -17 -10 -33l-115 -165q-19 -33 -43 -33q-18 0 -32.5 12t-14.5 30z" />
<glyph unicode="&#xdb;" d="M100 1146q0 111 3 234q1 26 21.5 44.5t45.5 18.5t44 -20t19 -47q-3 -130 -3 -244q0 -396 41 -604q54 -272 152 -347q92 -70 240 -70q139 0 231 56.5t146.5 157t77.5 232.5t23 283q0 230 -55 543q-1 6 -1 12q0 30 21.5 46.5t46.5 16.5q21 0 38.5 -12.5t22.5 -39.5 q56 -323 56 -574q0 -530 -252 -738q-66 -55 -158 -85t-195 -30q-176 0 -279 67t-157.5 185.5t-84.5 270.5q-44 228 -44 644zM297 1501q0 26 20 45l291 273q19 18 45 18q28 0 47 -19l271 -278q20 -20 20 -44q0 -26 -21.5 -46.5t-47.5 -20.5q-25 0 -44 20l-226 232l-245 -229 q-20 -19 -44 -19q-26 0 -46 21t-20 47z" />
<glyph unicode="&#xdc;" d="M100 1146q0 111 3 234q1 26 21.5 44.5t45.5 18.5t44 -20t19 -47q-3 -130 -3 -244q0 -396 41 -604q54 -272 152 -347q92 -70 240 -70q139 0 231 56.5t146.5 157t77.5 232.5t23 283q0 230 -55 543q-1 6 -1 12q0 30 21.5 46.5t46.5 16.5q21 0 38.5 -12.5t22.5 -39.5 q56 -323 56 -574q0 -530 -252 -738q-66 -55 -158 -85t-195 -30q-176 0 -279 67t-157.5 185.5t-84.5 270.5q-44 228 -44 644zM407 1566q0 25 6 50q4 18 18 45.5t33.5 48.5t41.5 21q31 0 58.5 -30.5t44.5 -72.5t17 -77q0 -45 -30.5 -76t-78.5 -31q-55 0 -82.5 35.5t-27.5 86.5 zM718 1558q0 25 6 50q4 18 18 45.5t33.5 48.5t41.5 21q31 0 58.5 -30.5t44.5 -72.5t17 -77q0 -45 -30.5 -76t-78.5 -31q-55 0 -82.5 35.5t-27.5 86.5z" />
<glyph unicode="&#xdd;" horiz-adv-x="1272" d="M100 1374q0 26 21 46t47 20q28 0 47 -24l523 -634q77 170 155 339t155 338q7 15 23 26.5t36 11.5q27 0 46 -19t19 -46q0 -14 -6 -27l-662 -1446q-7 -15 -23 -26.5t-36 -11.5q-27 0 -46 19t-19 46q0 14 6 27q73 159 146 318.5t146 318.5l-563 684q-15 19 -15 40zM627 1317 q0 22 20 56l73 166q18 33 56 33q24 0 45 -18.5t21 -47.5q0 -17 -10 -33l-115 -165q-19 -33 -43 -33q-18 0 -32.5 12t-14.5 30z" />
<glyph unicode="&#xde;" horiz-adv-x="993" d="M100 1392v14q0 18 22 35t43 17t43 -17t22 -35v-142q310 -15 489 -128q66 -42 120 -110.5t54 -163.5q0 -106 -62.5 -177t-138.5 -113q-170 -93 -422 -93q-19 0 -38 1l1 -440v-14q0 -19 -22 -36t-43 -17t-43 17t-22 36v13zM231 1134l1 -524q21 -1 42 -1q215 0 344 71 q146 81 146 184q0 42 -28 83t-87 79q-147 95 -418 108z" />
<glyph unicode="&#xdf;" horiz-adv-x="1084" d="M100 49v15l5 997q2 139 136 253q115 97 239 97q92 0 189 -54q134 -74 163 -202q9 -39 9 -76q0 -85 -45 -161q-63 -107 -175 -201q270 -114 343 -301q21 -54 21 -104q0 -93 -72 -171q-130 -142 -392 -142q-68 0 -145 10q-23 3 -40.5 21.5t-17.5 44.5q0 21 16.5 42.5 t35.5 21.5h1q34 0 67 -4t65 -4q76 0 157 19t137 59t56 104q0 74 -84 160q-101 104 -301 161q-45 12 -47 69q0 26 28 46q162 112 232 230q32 54 32 103q0 46 -28.5 86.5t-68.5 68t-75 34.5q-28 6 -56 6q-86 0 -160 -62q-54 -45 -73 -91q-17 -38 -17 -63l-5 -998 q-1 -27 -19.5 -45.5t-45.5 -19.5q-25 0 -46 19q-4 13 -19 32z" />
<glyph unicode="&#xe0;" horiz-adv-x="1095" d="M100 433q0 153 71 292q104 204 316 272q81 27 156 27q94 0 177 -44q145 -77 165 -285q3 -11 3 -23q0 -23 -9 -53q-15 -158 -15 -282q0 -173 29 -281q3 -10 3 -19q0 -28 -21.5 -44.5t-46.5 -16.5q-19 0 -36 11t-24 36q-31 115 -33 292q-95 -153 -204 -241 q-66 -53 -136 -60q-42 -12 -82 -12q-57 0 -104 21t-81 53q-61 57 -94.5 147.5t-33.5 209.5zM230 431q0 -86 23 -153.5t59 -101.5q46 -42 103 -42q19 0 36 4t39 6q17 2 67 41q50 40 106.5 113t106.5 164t81 183q1 10 2 20.5t2 20.5q-9 96 -62.5 152t-145.5 56q-55 0 -120 -21 q-161 -51 -235 -197q-62 -123 -62 -245zM554 1293q0 29 21 47.5t45 18.5q39 0 57 -33l73 -166q20 -34 20 -56q0 -18 -14.5 -30t-32.5 -12q-24 0 -43 33l-116 165q-10 16 -10 33z" />
<glyph unicode="&#xe1;" horiz-adv-x="1095" d="M100 433q0 153 71 292q104 204 316 272q81 27 156 27q94 0 177 -44q145 -77 165 -285q3 -11 3 -23q0 -23 -9 -53q-15 -158 -15 -282q0 -173 29 -281q3 -10 3 -19q0 -28 -21.5 -44.5t-46.5 -16.5q-19 0 -36 11t-24 36q-31 115 -33 292q-95 -153 -204 -241 q-66 -53 -136 -60q-42 -12 -82 -12q-57 0 -104 21t-81 53q-61 57 -94.5 147.5t-33.5 209.5zM230 431q0 -86 23 -153.5t59 -101.5q46 -42 103 -42q19 0 36 4t39 6q17 2 67 41q50 40 106.5 113t106.5 164t81 183q1 10 2 20.5t2 20.5q-9 96 -62.5 152t-145.5 56q-55 0 -120 -21 q-161 -51 -235 -197q-62 -123 -62 -245zM414 1134q0 22 20 56l73 166q18 33 56 33q24 0 45 -18.5t21 -47.5q0 -17 -10 -33l-115 -165q-19 -33 -43 -33q-18 0 -32.5 12t-14.5 30z" />
<glyph unicode="&#xe2;" horiz-adv-x="1095" d="M100 433q0 153 71 292q104 204 316 272q81 27 156 27q94 0 177 -44q145 -77 165 -285q3 -11 3 -23q0 -23 -9 -53q-15 -158 -15 -282q0 -173 29 -281q3 -10 3 -19q0 -28 -21.5 -44.5t-46.5 -16.5q-19 0 -36 11t-24 36q-31 115 -33 292q-95 -153 -204 -241 q-66 -53 -136 -60q-42 -12 -82 -12q-57 0 -104 21t-81 53q-61 57 -94.5 147.5t-33.5 209.5zM230 431q0 -86 23 -153.5t59 -101.5q46 -42 103 -42q19 0 36 4t39 6q17 2 67 41q50 40 106.5 113t106.5 164t81 183q1 10 2 20.5t2 20.5q-9 96 -62.5 152t-145.5 56q-55 0 -120 -21 q-161 -51 -235 -197q-62 -123 -62 -245zM258 1078q0 26 20 45l291 273q19 18 45 18q28 0 47 -19l271 -278q20 -20 20 -44q0 -26 -21.5 -46.5t-47.5 -20.5q-25 0 -44 20l-226 232l-245 -229q-20 -19 -44 -19q-26 0 -46 21t-20 47z" />
<glyph unicode="&#xe3;" horiz-adv-x="1095" d="M100 433q0 153 71 292q104 204 316 272q81 27 156 27q94 0 177 -44q145 -77 165 -285q3 -11 3 -23q0 -23 -9 -53q-15 -158 -15 -282q0 -173 29 -281q3 -10 3 -19q0 -28 -21.5 -44.5t-46.5 -16.5q-19 0 -36 11t-24 36q-31 115 -33 292q-95 -153 -204 -241 q-66 -53 -136 -60q-42 -12 -82 -12q-57 0 -104 21t-81 53q-61 57 -94.5 147.5t-33.5 209.5zM146 1111q0 21 4 30q26 72 94.5 127.5t163.5 55.5q93 0 195 -64q44 -28 74 -45.5t46 -24.5q32 -13 61 -13q38 0 70.5 26t37.5 59q5 27 22 45.5t46 18.5q21 0 42 -17t21 -37 q0 -96 -74 -160t-163 -64q-91 0 -198 67q-38 24 -82.5 51.5t-94.5 27.5q-49 0 -87 -29.5t-52 -67.5q-6 -17 -24 -30.5t-41 -13.5q-21 0 -41 19t-20 39zM230 431q0 -86 23 -153.5t59 -101.5q46 -42 103 -42q19 0 36 4t39 6q17 2 67 41q50 40 106.5 113t106.5 164t81 183 q1 10 2 20.5t2 20.5q-9 96 -62.5 152t-145.5 56q-55 0 -120 -21q-161 -51 -235 -197q-62 -123 -62 -245z" />
<glyph unicode="&#xe4;" horiz-adv-x="1095" d="M100 433q0 153 71 292q104 204 316 272q81 27 156 27q94 0 177 -44q145 -77 165 -285q3 -11 3 -23q0 -23 -9 -53q-15 -158 -15 -282q0 -173 29 -281q3 -10 3 -19q0 -28 -21.5 -44.5t-46.5 -16.5q-19 0 -36 11t-24 36q-31 115 -33 292q-95 -153 -204 -241 q-66 -53 -136 -60q-42 -12 -82 -12q-57 0 -104 21t-81 53q-61 57 -94.5 147.5t-33.5 209.5zM230 431q0 -86 23 -153.5t59 -101.5q46 -42 103 -42q19 0 36 4t39 6q17 2 67 41q50 40 106.5 113t106.5 164t81 183q1 10 2 20.5t2 20.5q-9 96 -62.5 152t-145.5 56q-55 0 -120 -21 q-161 -51 -235 -197q-62 -123 -62 -245zM383 1178q0 25 6 50q4 18 18 45.5t33.5 49t42.5 21.5q30 0 57.5 -30.5t44.5 -72.5t17 -77q0 -43 -31 -75.5t-78 -32.5q-55 0 -82.5 35.5t-27.5 86.5zM694 1170q0 25 6 50q4 18 18 45.5t33.5 49t42.5 21.5q30 0 57.5 -30.5t44.5 -72.5 t17 -77q0 -43 -31 -75.5t-78 -32.5q-55 0 -82.5 35.5t-27.5 86.5z" />
<glyph unicode="&#xe5;" horiz-adv-x="1095" d="M100 433q0 153 71 292q104 204 316 272q81 27 156 27q94 0 177 -44q145 -77 165 -285q3 -11 3 -23q0 -23 -9 -53q-15 -158 -15 -282q0 -173 29 -281q3 -10 3 -19q0 -28 -21.5 -44.5t-46.5 -16.5q-19 0 -36 11t-24 36q-31 115 -33 292q-95 -153 -204 -241 q-66 -53 -136 -60q-42 -12 -82 -12q-57 0 -104 21t-81 53q-61 57 -94.5 147.5t-33.5 209.5zM230 431q0 -86 23 -153.5t59 -101.5q46 -42 103 -42q19 0 36 4t39 6q17 2 67 41q50 40 106.5 113t106.5 164t81 183q1 10 2 20.5t2 20.5q-9 96 -62.5 152t-145.5 56q-55 0 -120 -21 q-161 -51 -235 -197q-62 -123 -62 -245zM361 1290q0 88 63.5 148t159.5 60q99 0 167 -62.5t68 -172.5q0 -90 -59 -145.5t-146 -69.5q-16 -2 -31 -2q-62 0 -112 33.5t-80 89t-30 121.5zM452 1285q0 -53 37 -96.5t96 -43.5q105 0 138 86q6 16 6 35q0 15 -4 31 q-29 103 -133 103q-61 0 -100.5 -28.5t-39.5 -86.5z" />
<glyph unicode="&#xe6;" horiz-adv-x="1975" d="M100 880q0 23 13.5 41.5t31.5 24.5q199 69 364 69q180 0 307 -76.5t188 -201.5q75 119 212.5 199.5t327.5 80.5q184 0 275 -105q56 -64 56 -152q0 -51 -21 -100q-61 -137 -258 -221q-196 -84 -518 -84q-10 0 -15 1q28 -103 110.5 -162.5t214.5 -59.5q167 0 392 111 q13 7 35 7q26 0 43 -21.5t17 -50.5q0 -35 -37 -51q-252 -125 -451 -125q-151 0 -253.5 61.5t-157.5 164.5q-67 -106 -184 -174t-282 -68q-236 0 -342 132q-25 31 -40 70t-15 83q0 48 20 95q58 133 251 210q195 78 513 78h1q-46 114 -148 170.5t-241 56.5q-147 0 -322 -60 q-9 -4 -30 -4q-20 0 -38.5 20t-18.5 41zM242 274q0 -39 32 -78t97 -58.5t145 -19.5q160 0 270.5 91.5t134.5 237.5q0 26 2 46.5t2 38.5q-13 -6 -20 -6h-8q-382 0 -558 -117q-37 -24 -67 -58.5t-30 -76.5zM1055 481q9 4 23 4q338 0 529 107q47 27 93.5 69.5t46.5 97.5 q0 38 -31 73q-48 55 -193 55q-125 0 -224.5 -49t-162.5 -132t-80 -185v-20t-1 -20z" />
<glyph unicode="&#xe7;" horiz-adv-x="964" d="M99 392q0 108 38.5 203.5t97.5 170t122 119.5q132 93 284 93q81 0 169 -27q21 -7 33 -25.5t12 -39.5q0 -26 -24 -47.5t-58 -11.5q-64 19 -125 19q-95 0 -171.5 -41.5t-131 -108t-83.5 -143.5q-32 -85 -32 -165q0 -123 71.5 -197t204.5 -74q115 0 271 56q11 4 23 4 q26 0 45.5 -18t19.5 -44q0 -24 -13 -41t-31 -23q-131 -49 -245 -61q0 -16 -1 -21l-14 -98q79 -5 127 -48.5t48 -118.5q0 -46 -20 -85q-29 -53 -88.5 -91t-142.5 -38q-92 0 -192 63q-31 19 -31 50q0 28 17.5 49t43.5 21q23 0 51 -18q18 -11 52.5 -24.5t69.5 -13.5q26 0 46 9 q16 8 40.5 29.5t24.5 46.5q0 41 -58 41q-16 0 -34.5 -3t-40.5 -3q-20 0 -37 20.5t-17 45.5q0 4 1 8l26 176q0 1 -25 4q-27 3 -69 19q-121 42 -187.5 136.5t-66.5 245.5z" />
<glyph unicode="&#xe8;" horiz-adv-x="1156" d="M100 425q0 34 4 71q23 191 159 327q176 176 463 176q110 0 193 -42.5t118 -120.5q19 -43 19 -91q0 -82 -42.5 -144.5t-120.5 -115.5q-219 -148 -635 -148q-6 0 -16 2q29 -104 112.5 -163t210.5 -59q170 0 395 111q14 7 29 7q26 0 45.5 -18t19.5 -45q0 -43 -36 -61 q-114 -56 -232 -90t-228 -34q-113 0 -210.5 42t-166.5 140q-39 55 -60 117t-21 139zM231 461q14 6 27 6q377 0 563 126q52 35 79 71.5t27 84.5q0 28 -12.5 45t-32.5 32q-56 43 -155 43q-133 0 -242 -49.5t-176.5 -141t-77.5 -217.5zM632 1305q0 29 21 47.5t45 18.5 q39 0 57 -33l73 -166q20 -34 20 -56q0 -18 -14.5 -30t-32.5 -12q-24 0 -43 33l-116 165q-10 16 -10 33z" />
<glyph unicode="&#xe9;" horiz-adv-x="1156" d="M100 425q0 34 4 71q23 191 159 327q176 176 463 176q110 0 193 -42.5t118 -120.5q19 -43 19 -91q0 -82 -42.5 -144.5t-120.5 -115.5q-219 -148 -635 -148q-6 0 -16 2q29 -104 112.5 -163t210.5 -59q170 0 395 111q14 7 29 7q26 0 45.5 -18t19.5 -45q0 -43 -36 -61 q-114 -56 -232 -90t-228 -34q-113 0 -210.5 42t-166.5 140q-39 55 -60 117t-21 139zM231 461q14 6 27 6q377 0 563 126q52 35 79 71.5t27 84.5q0 28 -12.5 45t-32.5 32q-56 43 -155 43q-133 0 -242 -49.5t-176.5 -141t-77.5 -217.5zM351 1074q0 22 20 56l73 166q18 33 56 33 q24 0 45 -18.5t21 -47.5q0 -17 -10 -33l-115 -165q-19 -33 -43 -33q-18 0 -32.5 12t-14.5 30z" />
<glyph unicode="&#xea;" horiz-adv-x="1156" d="M100 425q0 34 4 71q23 191 159 327q176 176 463 176q110 0 193 -42.5t118 -120.5q19 -43 19 -91q0 -82 -42.5 -144.5t-120.5 -115.5q-219 -148 -635 -148q-6 0 -16 2q29 -104 112.5 -163t210.5 -59q170 0 395 111q14 7 29 7q26 0 45.5 -18t19.5 -45q0 -43 -36 -61 q-114 -56 -232 -90t-228 -34q-113 0 -210.5 42t-166.5 140q-39 55 -60 117t-21 139zM231 461q14 6 27 6q377 0 563 126q52 35 79 71.5t27 84.5q0 28 -12.5 45t-32.5 32q-56 43 -155 43q-133 0 -242 -49.5t-176.5 -141t-77.5 -217.5zM333 1072q0 26 20 45l291 273 q19 18 45 18q28 0 47 -19l271 -278q20 -20 20 -44q0 -26 -21.5 -46.5t-47.5 -20.5q-25 0 -44 20l-226 232l-245 -229q-20 -19 -44 -19q-26 0 -46 21t-20 47z" />
<glyph unicode="&#xeb;" horiz-adv-x="1156" d="M100 425q0 34 4 71q23 191 159 327q176 176 463 176q110 0 193 -42.5t118 -120.5q19 -43 19 -91q0 -82 -42.5 -144.5t-120.5 -115.5q-219 -148 -635 -148q-6 0 -16 2q29 -104 112.5 -163t210.5 -59q170 0 395 111q14 7 29 7q26 0 45.5 -18t19.5 -45q0 -43 -36 -61 q-114 -56 -232 -90t-228 -34q-113 0 -210.5 42t-166.5 140q-39 55 -60 117t-21 139zM231 461q14 6 27 6q377 0 563 126q52 35 79 71.5t27 84.5q0 28 -12.5 45t-32.5 32q-56 43 -155 43q-133 0 -242 -49.5t-176.5 -141t-77.5 -217.5zM446 1158q0 25 6 50q4 18 18 45.5 t33.5 48.5t41.5 21q31 0 58.5 -30.5t44.5 -72.5t17 -77q0 -45 -30.5 -76t-78.5 -31q-55 0 -82.5 35.5t-27.5 86.5zM757 1150q0 25 6 50q4 18 18 45.5t33.5 48.5t41.5 21q31 0 58.5 -30.5t44.5 -72.5t17 -77q0 -45 -30.5 -76t-78.5 -31q-55 0 -82.5 35.5t-27.5 86.5z" />
<glyph unicode="&#xec;" horiz-adv-x="408" d="M92 1347q0 29 21 47.5t45 18.5q39 0 57 -33l73 -166q20 -34 20 -56q0 -18 -14.5 -30t-32.5 -12q-24 0 -43 33l-116 165q-10 16 -10 33zM108 54q0 13 5 26q9 21 14.5 83.5t8.5 147.5t4.5 175.5t1.5 168.5v124q0 85 -1 163q0 32 20.5 48t45.5 16q24 0 43.5 -15.5 t19.5 -46.5q1 -53 1.5 -104t0.5 -100q0 -163 -1.5 -295t-8.5 -282q-3 -80 -22 -127.5t-66 -47.5q-26 0 -46 19t-20 47z" />
<glyph unicode="&#xed;" horiz-adv-x="455" d="M42 1089q0 22 20 56l73 166q18 33 56 33q24 0 45 -18.5t21 -47.5q0 -17 -10 -33l-115 -165q-19 -33 -43 -33q-18 0 -32.5 12t-14.5 30zM108 54q0 13 5 26q9 21 14.5 83.5t8.5 147.5t4.5 175.5t1.5 168.5v124q0 85 -1 163q0 32 20.5 48t45.5 16q24 0 43.5 -15.5 t19.5 -46.5q1 -53 1.5 -104t0.5 -100q0 -163 -1.5 -295t-8.5 -282q-3 -80 -22 -127.5t-66 -47.5q-26 0 -46 19t-20 47z" />
<glyph unicode="&#xee;" horiz-adv-x="455" d="M-129 1054q0 26 20 45l291 273q19 18 45 18q28 0 47 -19l271 -278q20 -20 20 -44q0 -26 -21.5 -46.5t-47.5 -20.5q-25 0 -44 20l-226 232l-245 -229q-20 -19 -44 -19q-26 0 -46 21t-20 47zM108 54q0 13 5 26q9 21 14.5 83.5t8.5 147.5t4.5 175.5t1.5 168.5v124 q0 85 -1 163q0 32 20.5 48t45.5 16q24 0 43.5 -15.5t19.5 -46.5q1 -53 1.5 -104t0.5 -100q0 -163 -1.5 -295t-8.5 -282q-3 -80 -22 -127.5t-66 -47.5q-26 0 -46 19t-20 47z" />
<glyph unicode="&#xef;" horiz-adv-x="455" d="M-61 1196q0 25 6 50q4 18 18 45.5t33.5 49t42.5 21.5q30 0 57.5 -30.5t44.5 -72.5t17 -77q0 -44 -30.5 -76t-78.5 -32q-55 0 -82.5 35.5t-27.5 86.5zM108 54q0 13 5 26q9 21 14.5 83.5t8.5 147.5t4.5 175.5t1.5 168.5v124q0 85 -1 163q0 32 20.5 48t45.5 16 q24 0 43.5 -15.5t19.5 -46.5q1 -53 1.5 -104t0.5 -100q0 -163 -1.5 -295t-8.5 -282q-3 -80 -22 -127.5t-66 -47.5q-26 0 -46 19t-20 47zM250 1188q0 25 6 50q4 18 18 45.5t33.5 49t42.5 21.5q30 0 57.5 -30.5t44.5 -72.5t17 -77q0 -44 -30.5 -76t-78.5 -32q-55 0 -82.5 35.5 t-27.5 86.5z" />
<glyph unicode="&#xf0;" horiz-adv-x="1149" d="M101 402q0 114 54 205t146 144t205 53q116 0 206.5 -60t136.5 -136q-7 169 -95 317h-214q-19 0 -35.5 22t-16.5 43t16 43t35 22h115q-99 101 -228 153q-41 17 -41 52q0 28 16.5 51.5t45.5 23.5q14 0 29 -7q215 -89 348 -273h224q19 0 35.5 -22t16.5 -43t-16.5 -43 t-35.5 -22h-147q41 -85 59.5 -162t18.5 -174q0 -196 -84 -339t-230 -207q-82 -36 -167 -36q-107 0 -197.5 52.5t-145 142t-54.5 200.5zM231 402q0 -64 30 -119t77.5 -92t101.5 -46q32 -6 62 -6q131 0 230 107q21 35 33 75t12 82q0 61 -27 116q-32 66 -97.5 111.5 t-162.5 45.5q-70 0 -129 -39.5t-94.5 -102.5t-35.5 -132z" />
<glyph unicode="&#xf1;" horiz-adv-x="1295" d="M100 966q0 29 21 46.5t46 17.5q29 0 48 -23q72 -87 105 -268q136 246 351 277q34 5 67 5q120 0 212 -55.5t151.5 -145t80.5 -193.5q14 -66 14 -136q0 -221 -142 -468q-18 -31 -55 -31q-31 0 -55.5 29.5t-2.5 66.5q124 216 124 403q0 56 -11 109q-16 77 -58.5 143 t-108 106.5t-150.5 40.5q-23 0 -47 -3q-99 -14 -169 -87t-112.5 -176.5t-61.5 -210.5v-26q0 -144 -15 -290l-4 -39q-3 -28 -22 -41.5t-41 -13.5q-24 0 -44.5 15t-21.5 45q-2 45 -2 88q0 147 20 271q-4 230 -36 345q-31 114 -57 146q-24 30 -24 53zM216 1135q0 21 4 30 q26 72 94.5 127.5t163.5 55.5q93 0 195 -64q44 -28 74 -45.5t46 -24.5q32 -13 61 -13q38 0 70.5 26t37.5 59q5 27 22 45.5t46 18.5q21 0 42 -17t21 -37q0 -96 -74 -160t-163 -64q-91 0 -198 67q-38 24 -82.5 51.5t-94.5 27.5q-49 0 -87 -29.5t-52 -67.5q-6 -17 -24 -30.5 t-41 -13.5q-21 0 -41 19t-20 39z" />
<glyph unicode="&#xf2;" horiz-adv-x="1209" d="M100 498q0 40 6 81q28 199 167 326q140 128 316 135q12 2 24 -3q249 -15 408 -246q43 -62 66 -137.5t23 -167.5q0 -137 -65 -245.5t-157 -167.5q-59 -38 -132 -60t-153 -22q-147 0 -251 64t-167 160q-85 132 -85 283zM229 496q0 -85 34 -155.5t87 -120t111 -73.5 q70 -28 144 -28q103 0 187.5 48.5t128.5 117.5q29 46 43.5 99.5t14.5 108.5q0 116 -54 207.5t-139.5 146t-179.5 60.5q-8 0 -16 3q-102 -6 -184 -62t-129.5 -148t-47.5 -204zM557 1323q0 29 21 47.5t45 18.5q39 0 57 -33l73 -166q20 -34 20 -56q0 -18 -14.5 -30t-32.5 -12 q-24 0 -43 33l-116 165q-10 16 -10 33z" />
<glyph unicode="&#xf3;" horiz-adv-x="1209" d="M100 498q0 40 6 81q28 199 167 326q140 128 316 135q12 2 24 -3q249 -15 408 -246q43 -62 66 -137.5t23 -167.5q0 -137 -65 -245.5t-157 -167.5q-59 -38 -132 -60t-153 -22q-147 0 -251 64t-167 160q-85 132 -85 283zM229 496q0 -85 34 -155.5t87 -120t111 -73.5 q70 -28 144 -28q103 0 187.5 48.5t128.5 117.5q29 46 43.5 99.5t14.5 108.5q0 116 -54 207.5t-139.5 146t-179.5 60.5q-8 0 -16 3q-102 -6 -184 -62t-129.5 -148t-47.5 -204zM372 1122q0 22 20 56l73 166q18 33 56 33q24 0 45 -18.5t21 -47.5q0 -17 -10 -33l-115 -165 q-19 -33 -43 -33q-18 0 -32.5 12t-14.5 30z" />
<glyph unicode="&#xf4;" horiz-adv-x="1209" d="M100 498q0 40 6 81q28 199 167 326q140 128 316 135q12 2 24 -3q249 -15 408 -246q43 -62 66 -137.5t23 -167.5q0 -137 -65 -245.5t-157 -167.5q-59 -38 -132 -60t-153 -22q-147 0 -251 64t-167 160q-85 132 -85 283zM225 1084q0 26 20 45l291 273q19 18 45 18 q28 0 47 -19l271 -278q20 -20 20 -44q0 -26 -21.5 -46.5t-47.5 -20.5q-25 0 -44 20l-226 232l-245 -229q-20 -19 -44 -19q-26 0 -46 21t-20 47zM229 496q0 -85 34 -155.5t87 -120t111 -73.5q70 -28 144 -28q103 0 187.5 48.5t128.5 117.5q29 46 43.5 99.5t14.5 108.5 q0 116 -54 207.5t-139.5 146t-179.5 60.5q-8 0 -16 3q-102 -6 -184 -62t-129.5 -148t-47.5 -204z" />
<glyph unicode="&#xf5;" horiz-adv-x="1209" d="M100 498q0 40 6 81q28 199 167 326q140 128 316 135q12 2 24 -3q249 -15 408 -246q43 -62 66 -137.5t23 -167.5q0 -137 -65 -245.5t-157 -167.5q-59 -38 -132 -60t-153 -22q-147 0 -251 64t-167 160q-85 132 -85 283zM177 1132q0 21 4 30q26 72 94.5 127.5t163.5 55.5 q93 0 195 -64q44 -28 74 -45.5t46 -24.5q32 -13 61 -13q38 0 70.5 26t37.5 59q5 27 22 45.5t46 18.5q21 0 42 -17t21 -37q0 -96 -74 -160t-163 -64q-91 0 -198 67q-38 24 -82.5 51.5t-94.5 27.5q-49 0 -87 -29.5t-52 -67.5q-6 -17 -24 -30.5t-41 -13.5q-21 0 -41 19t-20 39z M229 496q0 -85 34 -155.5t87 -120t111 -73.5q70 -28 144 -28q103 0 187.5 48.5t128.5 117.5q29 46 43.5 99.5t14.5 108.5q0 116 -54 207.5t-139.5 146t-179.5 60.5q-8 0 -16 3q-102 -6 -184 -62t-129.5 -148t-47.5 -204z" />
<glyph unicode="&#xf6;" horiz-adv-x="1209" d="M100 498q0 40 6 81q28 199 167 326q140 128 316 135q12 2 24 -3q249 -15 408 -246q43 -62 66 -137.5t23 -167.5q0 -137 -65 -245.5t-157 -167.5q-59 -38 -132 -60t-153 -22q-147 0 -251 64t-167 160q-85 132 -85 283zM229 496q0 -85 34 -155.5t87 -120t111 -73.5 q70 -28 144 -28q103 0 187.5 48.5t128.5 117.5q29 46 43.5 99.5t14.5 108.5q0 116 -54 207.5t-139.5 146t-179.5 60.5q-8 0 -16 3q-102 -6 -184 -62t-129.5 -148t-47.5 -204zM320 1196q0 25 6 50q4 18 18 45.5t33.5 49t42.5 21.5q30 0 57.5 -30.5t44.5 -72.5t17 -77 q0 -43 -31 -75.5t-78 -32.5q-55 0 -82.5 35.5t-27.5 86.5zM631 1188q0 25 6 50q4 18 18 45.5t33.5 49t42.5 21.5q30 0 57.5 -30.5t44.5 -72.5t17 -77q0 -43 -31 -75.5t-78 -32.5q-55 0 -82.5 35.5t-27.5 86.5z" />
<glyph unicode="&#xf7;" horiz-adv-x="1163" d="M100 554q0 27 19 46t46 19h833q27 0 46 -19t19 -46t-19 -46t-46 -19h-833q-27 0 -46 19t-19 46zM482 183q0 39 14.5 64t38.5 53q31 35 68 35q32 0 63.5 -26t53 -64t21.5 -73q0 -43 -39 -70.5t-89 -27.5q-57 0 -94 29.5t-37 79.5zM490 865q0 39 14.5 64t38.5 53 q31 35 68 35q32 0 63.5 -26t53 -64t21.5 -73q0 -43 -39 -70t-89 -27q-57 0 -94 29t-37 79z" />
<glyph unicode="&#xf8;" horiz-adv-x="1209" d="M100 498q0 40 6 81q28 199 167 326q140 128 316 135q12 2 24 -3q99 -6 186 -47l77 132q8 15 23.5 26t35.5 11q27 0 46.5 -19.5t19.5 -46.5q0 -14 -7 -26l-86 -148q98 -84 150 -190.5t52 -242.5q0 -137 -65 -245.5t-157 -167.5q-60 -38 -133.5 -60t-152.5 -22 q-52 0 -105.5 11t-105.5 34l-79 -135q-8 -14 -23.5 -25.5t-34.5 -11.5q-27 0 -46.5 20t-19.5 47q0 14 7 26l87 147q-74 62 -128 168.5t-54 225.5zM229 496q0 -160 120 -276l384 657q-61 27 -97 28q-37 1 -46 5q-102 -6 -183.5 -62t-129.5 -147.5t-48 -204.5zM457 148 q72 -30 147 -30q106 0 191.5 49t135 132.5t49.5 188.5q0 90 -38 174t-101 143z" />
<glyph unicode="&#xf9;" horiz-adv-x="1114" d="M100 513q0 196 68 450q6 22 25 34.5t40 12.5q27 0 49 -24t12 -57q-65 -234 -65 -412q0 -135 37 -238q26 -72 75 -121.5t117 -49.5q58 0 120 40q172 110 227 401q0 20 -0.5 41.5t-0.5 43.5q0 43 1 89.5t3 95.5l7 115q14 56 65 56q24 0 42.5 -18t21.5 -41q9 -91 9 -174 q0 -117 -18 -219q6 -345 62 -449q7 -12 8 -13q33 -18 33 -58q0 -38 -32 -55t-72 4q-75 39 -108 262q-33 -57 -88 -115t-125.5 -96.5t-152.5 -38.5q-53 0 -105 19q-125 46 -190 188.5t-65 326.5zM473 1305q0 29 21 47.5t45 18.5q39 0 57 -33l73 -166q20 -34 20 -56 q0 -18 -14.5 -30t-32.5 -12q-24 0 -43 33l-116 165q-10 16 -10 33z" />
<glyph unicode="&#xfa;" horiz-adv-x="1114" d="M100 513q0 196 68 450q6 22 25 34.5t40 12.5q27 0 49 -24t12 -57q-65 -234 -65 -412q0 -135 37 -238q26 -72 75 -121.5t117 -49.5q58 0 120 40q172 110 227 401q0 20 -0.5 41.5t-0.5 43.5q0 43 1 89.5t3 95.5l7 115q14 56 65 56q24 0 42.5 -18t21.5 -41q9 -91 9 -174 q0 -117 -18 -219q6 -345 62 -449q7 -12 8 -13q33 -18 33 -58q0 -38 -32 -55t-72 4q-75 39 -108 262q-33 -57 -88 -115t-125.5 -96.5t-152.5 -38.5q-53 0 -105 19q-125 46 -190 188.5t-65 326.5zM381 1101q0 22 20 56l73 166q18 33 56 33q24 0 45 -18.5t21 -47.5 q0 -17 -10 -33l-115 -165q-19 -33 -43 -33q-18 0 -32.5 12t-14.5 30z" />
<glyph unicode="&#xfb;" horiz-adv-x="1114" d="M100 513q0 196 68 450q6 22 25 34.5t40 12.5q27 0 49 -24t12 -57q-65 -234 -65 -412q0 -135 37 -238q26 -72 75 -121.5t117 -49.5q58 0 120 40q172 110 227 401q0 20 -0.5 41.5t-0.5 43.5q0 43 1 89.5t3 95.5l7 115q14 56 65 56q24 0 42.5 -18t21.5 -41q9 -91 9 -174 q0 -117 -18 -219q6 -345 62 -449q7 -12 8 -13q33 -18 33 -58q0 -38 -32 -55t-72 4q-75 39 -108 262q-33 -57 -88 -115t-125.5 -96.5t-152.5 -38.5q-53 0 -105 19q-125 46 -190 188.5t-65 326.5zM204 1108q0 26 20 45l291 273q19 18 45 18q28 0 47 -19l271 -278 q20 -20 20 -44q0 -26 -21.5 -46.5t-47.5 -20.5q-25 0 -44 20l-226 232l-245 -229q-20 -19 -44 -19q-26 0 -46 21t-20 47z" />
<glyph unicode="&#xfc;" horiz-adv-x="1114" d="M100 513q0 196 68 450q6 22 25 34.5t40 12.5q27 0 49 -24t12 -57q-65 -234 -65 -412q0 -135 37 -238q26 -72 75 -121.5t117 -49.5q58 0 120 40q172 110 227 401q0 20 -0.5 41.5t-0.5 43.5q0 43 1 89.5t3 95.5l7 115q14 56 65 56q24 0 42.5 -18t21.5 -41q9 -91 9 -174 q0 -117 -18 -219q6 -345 62 -449q7 -12 8 -13q33 -18 33 -58q0 -38 -32 -55t-72 4q-75 39 -108 262q-33 -57 -88 -115t-125.5 -96.5t-152.5 -38.5q-53 0 -105 19q-125 46 -190 188.5t-65 326.5zM335 1178q0 25 6 50q4 18 18 45.5t33.5 49t42.5 21.5q30 0 57.5 -30.5 t44.5 -72.5t17 -77q0 -43 -31 -75.5t-78 -32.5q-55 0 -82.5 35.5t-27.5 86.5zM646 1170q0 25 6 50q4 18 18 45.5t33.5 49t42.5 21.5q30 0 57.5 -30.5t44.5 -72.5t17 -77q0 -43 -31 -75.5t-78 -32.5q-55 0 -82.5 35.5t-27.5 86.5z" />
<glyph unicode="&#xfd;" horiz-adv-x="1011" d="M100 624q0 147 20 324q3 28 22 41.5t42 13.5q24 0 44.5 -15.5t20.5 -46.5v-8q-19 -172 -19 -311q0 -245 59 -388q48 -117 115 -117q61 0 137 98q175 227 218 710q2 28 21.5 42.5t42.5 14.5t42.5 -14t23.5 -41l12 -150q11 -181 11 -340q0 -669 -194 -934 q-51 -70 -116.5 -103t-139.5 -33q-96 0 -203 52q-34 17 -34 59q0 29 27 52t65 6q79 -40 142 -40q44 0 80 19q69 36 114.5 129t73 220t40 265.5t14.5 265.5q-23 -64 -59 -134.5t-84 -132t-107 -100.5t-128 -39q-82 0 -138.5 51t-95.5 146q-69 166 -69 438zM475 1173 q0 22 20 56l73 166q18 33 56 33q24 0 45 -18.5t21 -47.5q0 -17 -10 -33l-115 -165q-19 -33 -43 -33q-18 0 -32.5 12t-14.5 30z" />
<glyph unicode="&#xfe;" horiz-adv-x="1088" d="M100 791v8q0 28 20 48.5t48 20.5q26 0 46.5 -19t22.5 -44q3 -28 5.5 -64t4.5 -81q53 4 105 4q188 0 337 -52.5t233 -161.5q66 -85 66 -182q0 -81 -48 -152q-68 -102 -195.5 -149t-292.5 -47q-87 0 -183 12l6 -463v-1q0 -28 -20.5 -48.5t-48.5 -20.5t-48 20.5t-20 48.5 q-1 161 -4 348.5t-7 375t-11 348.5q-4 86 -8 148.5t-8 102.5zM254 523q4 -91 6.5 -204t5.5 -248q89 -13 176 -13q82 0 156.5 12.5t130.5 40.5q124 61 124 155q0 68 -49.5 115.5t-105.5 75.5q-68 35 -157.5 52.5t-191.5 17.5q-47 0 -95 -4z" />
<glyph unicode="&#xff;" horiz-adv-x="1011" d="M100 624q0 147 20 324q3 28 22 41.5t42 13.5q24 0 44.5 -15.5t20.5 -46.5v-8q-19 -172 -19 -311q0 -245 59 -388q48 -117 115 -117q61 0 137 98q175 227 218 710q2 28 21.5 42.5t42.5 14.5t42.5 -14t23.5 -41l12 -150q11 -181 11 -340q0 -669 -194 -934 q-51 -70 -116.5 -103t-139.5 -33q-96 0 -203 52q-34 17 -34 59q0 29 27 52t65 6q79 -40 142 -40q44 0 80 19q69 36 114.5 129t73 220t40 265.5t14.5 265.5q-23 -64 -59 -134.5t-84 -132t-107 -100.5t-128 -39q-82 0 -138.5 51t-95.5 146q-69 166 -69 438zM281 1212 q0 25 6 50q4 18 18 45.5t33.5 48.5t41.5 21q31 0 58.5 -30.5t44.5 -72.5t17 -77q0 -45 -30.5 -76t-78.5 -31q-55 0 -82.5 35.5t-27.5 86.5zM592 1204q0 25 6 50q4 18 18 45.5t33.5 48.5t41.5 21q31 0 58.5 -30.5t44.5 -72.5t17 -77q0 -45 -30.5 -76t-78.5 -31 q-55 0 -82.5 35.5t-27.5 86.5z" />
<glyph unicode="&#x152;" horiz-adv-x="2105" d="M99 626q0 129 47 263q79 223 278 377q207 160 493 160q26 0 54 -1q5 0 13 -2q80 5 164 8t172 3q215 0 384 -22.5t262 -63.5q39 -16 39 -52q0 -28 -16 -50.5t-42 -22.5q-20 0 -34 6q-81 36 -242 55.5t-361 19.5q-64 0 -129 -1.5t-131 -5.5q2 -108 3.5 -215.5t1.5 -213.5 v-89l725 -5h1q26 0 45.5 -19.5t19.5 -45.5q0 -21 -16.5 -43t-35.5 -22h-15l-725 5q-3 -289 -15 -520q330 2 537 6t289 11h18q17 0 35 -20.5t18 -39.5q0 -28 -15 -48t-45 -22q-92 -8 -273.5 -12t-451.5 -5l-180 -1q-12 0 -25 5q-83 -11 -160 -11q-237 0 -405 101t-238 289 q-44 120 -44 244zM231 624q0 -161 70 -273t193 -170.5t284 -58.5q62 0 131 8q17 333 17 706q0 223 -6 460q-258 0 -436 -145q-176 -143 -229 -349q-24 -91 -24 -178z" />
<glyph unicode="&#x153;" horiz-adv-x="2048" d="M100 507q0 37 5 74q17 118 82 218.5t167.5 164.5t228.5 70h4q7 0 12 -1.5t9 -1.5q161 -10 274 -102t167 -214q74 126 214 209.5t336 83.5q86 0 161.5 -28t121.5 -85t46 -144q0 -52 -21 -100q-61 -138 -258 -222q-194 -83 -519 -83q-9 0 -14 1q28 -103 111 -162.5 t215 -59.5q168 0 391 111q13 7 35 7q20 0 40 -18.5t20 -38.5q0 -48 -37 -66q-252 -125 -451 -125q-154 0 -257 63.5t-158 168.5q-59 -97 -172.5 -164.5t-252.5 -67.5q-47 0 -95.5 9t-97.5 29q-85 34 -155 103t-111 163.5t-41 207.5zM218 493q0 -85 34.5 -156t88 -121.5 t112.5 -73.5q74 -30 148 -30q84 0 167 39q176 83 206 277v19q0 33 4 64q-5 113 -60.5 201t-139.5 141t-178 59q-8 0 -16 3q-96 -5 -173 -55t-126 -128t-62 -168q-5 -37 -5 -71zM1104 470q12 6 19 6q146 0 287 24.5t235 74.5q29 15 65.5 41.5t63 60.5t26.5 73q0 38 -31 73 q-25 29 -74.5 41t-106.5 12q-87 0 -164 -22q-129 -37 -220 -136.5t-100 -247.5z" />
<glyph unicode="&#x2c6;" horiz-adv-x="699" d="M3 1153q0 26 20 45l291 273q19 18 45 18q28 0 47 -19l271 -278q20 -20 20 -44q0 -26 -21.5 -46.5t-47.5 -20.5q-25 0 -44 20l-226 232l-245 -229q-20 -19 -44 -19q-26 0 -46 21t-20 47z" />
<glyph unicode="&#x2dc;" horiz-adv-x="877" d="M0 1219q0 21 4 30q26 72 94.5 127.5t163.5 55.5q93 0 195 -64q44 -28 74 -45.5t46 -24.5q32 -13 61 -13q38 0 70.5 26t37.5 59q5 27 22 45.5t46 18.5q21 0 42 -17t21 -37q0 -96 -74 -160t-163 -64q-91 0 -198 67q-38 24 -82.5 51.5t-94.5 27.5q-49 0 -87 -29.5t-52 -67.5 q-6 -17 -24 -30.5t-41 -13.5q-21 0 -41 19t-20 39z" />
<glyph unicode="&#x2000;" horiz-adv-x="957" />
<glyph unicode="&#x2001;" horiz-adv-x="1914" />
<glyph unicode="&#x2002;" horiz-adv-x="957" />
<glyph unicode="&#x2003;" horiz-adv-x="1914" />
<glyph unicode="&#x2004;" horiz-adv-x="638" />
<glyph unicode="&#x2005;" horiz-adv-x="478" />
<glyph unicode="&#x2006;" horiz-adv-x="319" />
<glyph unicode="&#x2007;" horiz-adv-x="319" />
<glyph unicode="&#x2008;" horiz-adv-x="239" />
<glyph unicode="&#x2009;" horiz-adv-x="382" />
<glyph unicode="&#x200a;" horiz-adv-x="106" />
<glyph unicode="&#x2010;" horiz-adv-x="783" d="M107 490q0 27 19 46t46 19h441q27 0 46 -19t19 -46t-19 -46t-46 -19h-441q-27 0 -46 19t-19 46z" />
<glyph unicode="&#x2011;" horiz-adv-x="783" d="M107 490q0 27 19 46t46 19h441q27 0 46 -19t19 -46t-19 -46t-46 -19h-441q-27 0 -46 19t-19 46z" />
<glyph unicode="&#x2012;" horiz-adv-x="783" d="M107 490q0 27 19 46t46 19h441q27 0 46 -19t19 -46t-19 -46t-46 -19h-441q-27 0 -46 19t-19 46z" />
<glyph unicode="&#x2013;" horiz-adv-x="783" d="M107 490q0 27 19 46t46 19h441q27 0 46 -19t19 -46t-19 -46t-46 -19h-441q-27 0 -46 19t-19 46z" />
<glyph unicode="&#x2014;" horiz-adv-x="1495" d="M107 490q0 27 19 46t46 19h1158q27 0 46 -19t19 -46t-19 -46t-46 -19h-1158q-27 0 -46 19t-19 46z" />
<glyph unicode="&#x2018;" horiz-adv-x="423" d="M99 1071q0 56 10 119t25 116t32 80q25 39 62 39q43 0 43 -45q0 -28 -13 -67.5t-13 -73.5q0 -71 44 -152q35 -65 35 -115q0 -40 -24 -72t-68 -32q-76 0 -104.5 59t-28.5 144z" />
<glyph unicode="&#x2019;" horiz-adv-x="422" d="M100 1329q0 41 23.5 72.5t69.5 31.5q74 0 101.5 -56.5t27.5 -139.5q0 -56 -10.5 -121t-27 -119.5t-33.5 -81.5q-25 -38 -60 -38q-44 0 -44 45q0 29 14 69t14 74q0 70 -42 151q-33 64 -33 113z" />
<glyph unicode="&#x201a;" horiz-adv-x="422" d="M100 126q0 41 23.5 72.5t69.5 31.5q74 0 101.5 -56.5t27.5 -139.5q0 -56 -10.5 -121t-27 -119.5t-33.5 -81.5q-25 -38 -60 -38q-44 0 -44 45q0 29 14 69t14 74q0 70 -42 151q-33 64 -33 113z" />
<glyph unicode="&#x201c;" horiz-adv-x="713" d="M99 1071q0 56 10 119t25 116t32 80q25 39 62 39q43 0 43 -45q0 -28 -13 -67.5t-13 -73.5q0 -71 44 -152q35 -65 35 -115q0 -40 -24 -72t-68 -32q-76 0 -104.5 59t-28.5 144zM389 1065q0 56 10 119t25 116t32 80q25 39 62 39q43 0 43 -45q0 -27 -13 -66.5t-13 -73.5 q0 -72 44 -153q35 -65 35 -115q0 -40 -24 -72t-68 -32q-76 0 -104.5 59t-28.5 144z" />
<glyph unicode="&#x201d;" horiz-adv-x="669" d="M100 1330q0 41 23.5 72.5t69.5 31.5q74 0 101.5 -56.5t27.5 -139.5q0 -56 -10.5 -121t-27 -119.5t-33.5 -81.5q-25 -38 -60 -38q-44 0 -44 45q0 29 14 69t14 74q0 70 -42 151q-33 64 -33 113zM347 1332q0 41 23.5 72.5t69.5 31.5q74 0 101.5 -56.5t27.5 -139.5 q0 -56 -10.5 -121t-27 -119.5t-33.5 -81.5q-25 -38 -60 -38q-44 0 -44 45q0 29 14 69t14 74q0 70 -42 151q-33 64 -33 113z" />
<glyph unicode="&#x201e;" horiz-adv-x="669" d="M100 126q0 41 23.5 72.5t69.5 31.5q74 0 101.5 -56.5t27.5 -139.5q0 -56 -10.5 -121t-27 -119.5t-33.5 -81.5q-25 -38 -60 -38q-44 0 -44 45q0 29 14 69t14 74q0 70 -42 151q-33 64 -33 113zM347 128q0 41 23.5 72.5t69.5 31.5q74 0 101.5 -56.5t27.5 -139.5 q0 -56 -10.5 -121t-27 -119.5t-33.5 -81.5q-25 -38 -60 -38q-44 0 -44 45q0 29 14 69t14 74q0 70 -42 151q-33 64 -33 113z" />
<glyph unicode="&#x2022;" horiz-adv-x="876" d="M100 695q0 87 48.5 158.5t126.5 114t166 42.5t164.5 -41t123.5 -111t47 -157t-48 -158.5t-126 -114.5t-167 -43t-165.5 41t-123 111.5t-46.5 157.5z" />
<glyph unicode="&#x2026;" horiz-adv-x="1203" d="M102 100q0 25 6 50q4 18 18 45.5t33.5 49t42.5 21.5q30 0 57.5 -30.5t44.5 -72.5t17 -77q0 -43 -31 -75.5t-78 -32.5q-55 0 -82.5 35.5t-27.5 86.5zM482 100q0 25 6 50q4 18 18 45.5t33.5 49t42.5 21.5q30 0 57.5 -30.5t44.5 -72.5t17 -77q0 -43 -31 -75.5t-78 -32.5 q-55 0 -82.5 35.5t-27.5 86.5zM884 100q0 25 6 50q4 18 18 45.5t33.5 49t42.5 21.5q30 0 57.5 -30.5t44.5 -72.5t17 -77q0 -43 -31 -75.5t-78 -32.5q-55 0 -82.5 35.5t-27.5 86.5z" />
<glyph unicode="&#x202f;" horiz-adv-x="382" />
<glyph unicode="&#x2039;" horiz-adv-x="828" d="M101 725q0 41 18 62t42 37q12 8 52.5 30t110.5 59t144 81t153 95q17 11 40 11q26 0 43.5 -21t17.5 -49q0 -31 -30 -51q-109 -71 -221.5 -133t-202.5 -110q10 -5 45.5 -22t96.5 -47q120 -59 286 -159q32 -19 32 -51q0 -28 -17.5 -49t-43.5 -21q-22 0 -38 10 q-79 48 -154.5 89.5t-146.5 75.5q-70 35 -111.5 55.5t-53.5 27.5q-62 39 -62 80z" />
<glyph unicode="&#x203a;" horiz-adv-x="836" d="M101 1030q0 36 30 55.5t66 0.5q81 -45 157.5 -83.5t148.5 -70.5q144 -64 168 -78q65 -37 65 -83q0 -39 -17.5 -59.5t-39.5 -36.5q-11 -8 -51 -32t-109 -63t-141.5 -85.5t-149.5 -99.5q-18 -13 -37 -13q-27 0 -46 22t-19 48q0 31 28 50q107 74 216.5 141.5t199.5 115.5 q-23 11 -145 65q-62 28 -134.5 65.5t-156.5 83.5q-33 18 -33 57z" />
<glyph unicode="&#x205f;" horiz-adv-x="478" />
<glyph unicode="&#x20ac;" horiz-adv-x="2048" d="M0 710q0 27 19 46t46 19h3l174 -6q-3 28 -3 62q0 22 1 46l-176 5q-26 1 -45 20t-19 45q0 27 19 46t46 19h3l194 -5q41 142 139.5 244.5t232.5 149.5q95 33 197 33q122 0 233 -48q14 -6 27 -23t13 -37q0 -28 -18.5 -46.5t-46.5 -18.5q-14 0 -26 6q-86 37 -184 37 q-80 0 -152 -26q-97 -34 -170.5 -106.5t-108.5 -168.5l553 -17q26 -1 45 -20t19 -45q0 -27 -19 -46t-46 -19q-1 0 -1.5 0.5t-1.5 0.5l-577 16q-1 -18 -1 -36q0 -34 5 -71l577 -17q26 -1 45 -20t19 -45q0 -27 -19 -46t-46 -19h-3l-535 15q44 -98 126 -171.5t188 -107.5 q74 -23 155 -23q110 0 205 41q12 6 27 6q27 0 46 -19t19 -46q0 -19 -13 -36.5t-27 -23.5q-123 -53 -259 -53q-100 0 -193 30q-148 47 -256.5 154t-158.5 254l-207 6q-26 1 -45 20t-19 45z" />
<glyph unicode="&#x25fc;" horiz-adv-x="1014" d="M0 0v1015h1015v-1015h-1015z" />
</font>
</defs>
</svg>
